<svg width="32" height="32" viewBox="0 0 32 32" fill="none" xmlns="http://www.w3.org/2000/svg">
<g clip-path="url(#clip0_75_16553)">
<path d="M15.3141 12.4939C15.5341 11.8339 16.4661 11.8339 16.6861 12.4939L17.9761 16.3679C18.2601 17.2195 18.7385 17.9933 19.3734 18.6279C20.0083 19.2625 20.7824 19.7405 21.6341 20.0239L25.5061 21.3139C26.1661 21.5339 26.1661 22.4659 25.5061 22.6859L21.6321 23.9759C20.7805 24.2599 20.0067 24.7383 19.3722 25.3732C18.7376 26.0082 18.2596 26.7822 17.9761 27.6339L16.6861 31.5059C16.6387 31.6505 16.5468 31.7763 16.4236 31.8655C16.3004 31.9548 16.1522 32.0028 16.0001 32.0028C15.848 32.0028 15.6998 31.9548 15.5766 31.8655C15.4534 31.7763 15.3615 31.6505 15.3141 31.5059L14.0241 27.6319C13.7404 26.7805 13.2623 26.0069 12.6277 25.3723C11.9931 24.7378 11.2195 24.2597 10.3681 23.9759L6.49411 22.6859C6.34959 22.6385 6.22374 22.5466 6.13451 22.4235C6.04529 22.3003 5.99725 22.152 5.99725 21.9999C5.99725 21.8478 6.04529 21.6996 6.13451 21.5764C6.22374 21.4532 6.34959 21.3614 6.49411 21.3139L10.3681 20.0239C11.2195 19.7402 11.9931 19.2621 12.6277 18.6275C13.2623 17.9929 13.7404 17.2193 14.0241 16.3679L15.3141 12.4939ZM7.58811 2.29593C7.61679 2.20932 7.67203 2.13395 7.746 2.08053C7.81996 2.02711 7.90887 1.99836 8.00011 1.99836C8.09135 1.99836 8.18026 2.02711 8.25422 2.08053C8.32818 2.13395 8.38343 2.20932 8.41211 2.29593L9.18611 4.61994C9.53211 5.65594 10.3441 6.46794 11.3801 6.81394L13.7041 7.58793C13.7907 7.61661 13.8661 7.67186 13.9195 7.74582C13.9729 7.81978 14.0017 7.9087 14.0017 7.99994C14.0017 8.09117 13.9729 8.18009 13.9195 8.25405C13.8661 8.32801 13.7907 8.38326 13.7041 8.41193L11.3801 9.18594C10.8689 9.35561 10.4043 9.64231 10.0234 10.0232C9.64249 10.4041 9.35579 10.8687 9.18611 11.3799L8.41211 13.7039C8.38343 13.7905 8.32818 13.8659 8.25422 13.9193C8.18026 13.9728 8.09135 14.0015 8.00011 14.0015C7.90887 14.0015 7.81996 13.9728 7.746 13.9193C7.67203 13.8659 7.61679 13.7905 7.58811 13.7039L6.81411 11.3799C6.64443 10.8687 6.35773 10.4041 5.97683 10.0232C5.59593 9.64231 5.13136 9.35561 4.62011 9.18594L2.29611 8.41193C2.2095 8.38326 2.13413 8.32801 2.08071 8.25405C2.02729 8.18009 1.99854 8.09117 1.99854 7.99994C1.99854 7.9087 2.02729 7.81978 2.08071 7.74582C2.13413 7.67186 2.2095 7.61661 2.29611 7.58793L4.62011 6.81394C5.13136 6.64426 5.59593 6.35756 5.97683 5.97666C6.35773 5.59576 6.64443 5.13119 6.81411 4.61994L7.58811 2.29593ZM21.7261 0.197935C21.7459 0.140988 21.7828 0.0916068 21.832 0.0566582C21.8811 0.0217095 21.9398 0.00292969 22.0001 0.00292969C22.0604 0.00292969 22.1192 0.0217095 22.1683 0.0566582C22.2174 0.0916068 22.2544 0.140988 22.2741 0.197935L22.7901 1.74593C23.0201 2.43793 23.5621 2.97993 24.2541 3.20993L25.8021 3.72593C25.8591 3.74568 25.9084 3.78267 25.9434 3.83178C25.9783 3.88089 25.9971 3.93966 25.9971 3.99993C25.9971 4.06021 25.9783 4.11898 25.9434 4.16809C25.9084 4.2172 25.8591 4.25419 25.8021 4.27394L24.2541 4.78994C23.9134 4.90393 23.6038 5.09551 23.3497 5.34957C23.0957 5.60362 22.9041 5.91321 22.7901 6.25394L22.2741 7.80194C22.2544 7.85888 22.2174 7.90826 22.1683 7.94321C22.1192 7.97816 22.0604 7.99694 22.0001 7.99694C21.9398 7.99694 21.8811 7.97816 21.832 7.94321C21.7828 7.90826 21.7459 7.85888 21.7261 7.80194L21.2101 6.25394C21.0961 5.91321 20.9045 5.60362 20.6505 5.34957C20.3964 5.09551 20.0868 4.90393 19.7461 4.78994L18.2001 4.27394C18.1432 4.25419 18.0938 4.2172 18.0588 4.16809C18.0239 4.11898 18.0051 4.06021 18.0051 3.99993C18.0051 3.93966 18.0239 3.88089 18.0588 3.83178C18.0938 3.78267 18.1432 3.74568 18.2001 3.72593L19.7481 3.20993C20.4401 2.97993 20.9821 2.43793 21.2121 1.74593L21.7261 0.197935Z" fill="#FFD700"/>
</g>
<defs>
<clipPath id="clip0_75_16553">
<rect width="32" height="32" fill="white"/>
</clipPath>
</defs>
</svg>
