<svg width="262" height="263" viewBox="0 0 262 263" fill="none" xmlns="http://www.w3.org/2000/svg">
<path d="M-0.499994 -3.13028e-06C33.972 -2.71921e-06 68.1064 6.78973 99.9544 19.9816C131.802 33.1735 160.74 52.5091 185.116 76.8845C209.491 101.26 228.827 130.198 242.018 162.046C255.21 193.894 262 228.028 262 262.5C262 296.972 255.21 331.106 242.018 362.954C228.827 394.802 209.491 423.74 185.116 448.116C160.74 472.491 131.802 491.827 99.9544 505.018C68.1064 518.21 33.972 525 -0.500031 525L-0.50003 448.021C23.8629 448.021 47.9873 443.222 70.4957 433.899C93.0041 424.575 113.456 410.91 130.683 393.683C147.91 376.456 161.575 356.004 170.899 333.496C180.222 310.987 185.021 286.863 185.021 262.5C185.021 238.137 180.222 214.013 170.899 191.504C161.575 168.996 147.91 148.544 130.683 131.317C113.456 114.09 93.0041 100.425 70.4957 91.1013C47.9873 81.778 23.8629 76.9793 -0.499995 76.9793L-0.499994 -3.13028e-06Z" fill="#7EB2DD"/>
</svg>
