<svg width="263" height="525" viewBox="0 0 263 525" fill="none" xmlns="http://www.w3.org/2000/svg">
<path d="M262.5 525C228.028 525 193.894 518.21 162.046 505.018C130.198 491.827 101.26 472.491 76.8844 448.116C52.5091 423.74 33.1735 394.802 19.9816 362.954C6.78975 331.106 -1.44879e-05 296.972 -1.14742e-05 262.5C-8.4606e-06 228.028 6.78976 193.894 19.9816 162.046C33.1735 130.198 52.5091 101.26 76.8845 76.8845C101.26 52.5091 130.198 33.1735 162.046 19.9816C193.894 6.78977 228.028 6.95379e-06 262.5 1.14742e-05L262.5 76.9794C238.137 76.9794 214.013 81.778 191.504 91.1013C168.996 100.425 148.544 114.09 131.317 131.317C114.09 148.544 100.425 168.996 91.1013 191.504C81.778 214.013 76.9793 238.137 76.9793 262.5C76.9793 286.863 81.778 310.987 91.1012 333.496C100.425 356.004 114.09 376.456 131.317 393.683C148.544 410.91 168.996 424.575 191.504 433.899C214.013 443.222 238.137 448.021 262.5 448.021L262.5 525Z" fill="#7EB2DD"/>
</svg>
