<svg width="25" height="25" viewBox="0 0 25 25" fill="none" xmlns="http://www.w3.org/2000/svg">
<g clip-path="url(#clip0_1735_48)">
<path d="M24.9657 12.7589C24.9657 11.7326 24.8808 10.9837 24.6968 10.207H12.7383V14.8393H19.7577C19.6162 15.9905 18.852 17.7241 17.1537 18.889L17.1299 19.0441L20.911 21.9147L21.1729 21.9403C23.5788 19.7628 24.9657 16.559 24.9657 12.7589Z" fill="#4285F4"/>
<path d="M12.7377 24.9637C16.1766 24.9637 19.0635 23.8542 21.1723 21.9402L17.1531 18.8889C16.0775 19.6241 14.634 20.1372 12.7377 20.1372C9.36953 20.1372 6.5108 17.9597 5.49176 14.9502L5.34239 14.9626L1.41079 17.9445L1.35938 18.0846C3.45387 22.162 7.75612 24.9637 12.7377 24.9637Z" fill="#34A853"/>
<path d="M5.49194 14.951C5.22305 14.1743 5.06744 13.3421 5.06744 12.4823C5.06744 11.6223 5.22305 10.7902 5.47779 10.0136L5.47066 9.84808L1.48979 6.81836L1.35954 6.87908C0.496305 8.57116 0.000976562 10.4712 0.000976562 12.4823C0.000976562 14.4932 0.496305 16.3933 1.35954 18.0853L5.49194 14.951Z" fill="#FBBC05"/>
<path d="M12.7378 4.82641C15.1294 4.82641 16.7427 5.83885 17.6627 6.68491L21.2573 3.24536C19.0496 1.23435 16.1767 0 12.7378 0C7.75612 0 3.45387 2.80153 1.35938 6.879L5.47763 10.0135C6.51084 7.00388 9.36953 4.82641 12.7378 4.82641Z" fill="#EB4335"/>
</g>
<defs>
<clipPath id="clip0_1735_48">
<rect width="25" height="24.9643" fill="white"/>
</clipPath>
</defs>
</svg>
