<?xml version="1.0" encoding="UTF-8"?><svg xmlns="http://www.w3.org/2000/svg" viewBox="0 0 200 200"><defs><style>.b{fill:#230c08;}.c{fill:#1b1b30;}.d{isolation:isolate;}.e{fill:#f15a24;}.f{fill:#542d22;}.g{mix-blend-mode:multiply;}.g,.h{fill:none;stroke:#1b1b30;stroke-linecap:round;stroke-miterlimit:10;stroke-width:2.54px;}.i{fill:#f7931e;mix-blend-mode:screen;}</style></defs><g class="d"><g id="a"><g><g><path class="f" d="M112.8,52.87s-.03,0-.05,.02c-1.81,.59-4.44,1.32-6.63,1.51-.17,.02-.33,.03-.48,.04-.5,.03-.96,.02-1.38-.03-.15,0-.3-.03-.44-.06-.08-.02-.16-.03-.24-.06-.41-.11-.75-.28-.99-.52-2.32-2.43-1.93-1.84-1.93-1.84-.2-.22-.39-.68-.56-1.28h0c.07,.03,.14,.06,.2,.09,.27,.13,.54,.25,.81,.36,.19,.08,.38,.17,.57,.25-.87-1.67-1.83-4.51-2.19-6.47,.05-1.18,.25-2.06,.63-2.16,.05-.02,.11-.03,.18-.03,.07-.02,.14-.03,.21-.03,.05,0,.11-.02,.17-.02,.07,0,.13-.02,.19-.02,.19-.02,.42-.03,.67-.04,1.23-.06,2.97-.03,4.44,.14,.04,0,.08,0,.12,0,.74,.08,1.41,.21,1.91,.38,.06,.02,.11,.03,.16,.06,.06,.02,.11,.04,.15,.06,.08,.03,.14,.07,.19,.1,.06,.03,.11,.08,.16,.12l.05,.05s.06,.07,.08,.11c.52,.94,1.79,6.33,3.82,8.07,.53,.46,1.12,.67,1.75,.49,.21-.06,.36-.1,.46-.11,.19,0-.69,.37-2.06,.83Z"/><path class="b" d="M114.41,52.15c-3.07,.88-4.92-7.37-5.57-8.56-.25-.46-1.42-.74-2.83-.89,.21,.1,.36,.22,.43,.35,.43,.78,1.05,4.75,2.29,7.14,.66,1.26-.23,2.78-1.65,2.89-.54,.04-1.17,.07-1.88,.08,2.68,2.09,12.24-1.87,9.23-1.01Z"/><path class="e" d="M104.87,53.98c-.13-.08-.23-.18-.32-.28-1.22-1.25-1.69-1.77-1.84-1.96h0c-.07-.08-.08-.1-.08-.1-.83-1-1.41-6.56-1.05-9.07-.25,0-.47,.03-.67,.04-.07,0-.13,0-.19,.02-.06,0-.12,0-.17,.02-.08,0-.14,.02-.21,.03-.07,0-.13,.02-.18,.03-.38,.1-.57,.98-.63,2.16-.06,1.77,.19,4.23,.6,5.76h0c.17,.62,.35,1.07,.56,1.29,0,0-.4-.59,1.93,1.84,.24,.25,.57,.41,.99,.52l.25,.05c.14,.03,.28,.05,.42,.07,.41,.04,.86,.04,1.34,.02,.17,0,.35-.02,.52-.03-.5-.07-.93-.2-1.26-.42Z"/><path class="i" d="M101.71,51.35c-.19-.08-.38-.16-.57-.25-.27-.12-.54-.24-.81-.36-.07-.03-.14-.07-.2-.1-.41-1.53-.66-3.99-.6-5.76,.35,1.96,1.32,4.8,2.19,6.47Z"/><path class="f" d="M143.05,49.57c-.04,.74-.15,1.48-.35,2.23-1.49,5.8-7.34,11.66-10.95,14.96-.45,.41-.86,.78-1.23,1.11-1.91,1.71-5.72,2.16-10.49,2.59-4.45,.41-9.72,.79-15.06,2.15-.36,.09-.73,.17-1.11,.23-.19,.04-.39,.06-.59,.09-.2,.03-.41,.05-.61,.07-11.87,1.21-34.85-6.82-36.05-7.89-.02-.02-.04-.04-.04-.05-.1-.22-.19-.43-.28-.63-.29-.68-.52-1.32-.7-1.92-.09-.3-.17-.59-.23-.87-.04-.15-.07-.3-.1-.45-.02-.07-.03-.15-.04-.22-.02-.07-.03-.14-.04-.21-.04-.27-.07-.54-.09-.79-.02-.28-.03-.55-.02-.81v-.04c.12-5.01,4.88-5.88,4.88-5.88,0,0,7.68,2.25,15.96,3.98,1.33,.28,2.68,.54,4.01,.78,5.47,.98,10.7,1.53,13.66,.86,8.16-1.84,24.76-11.15,25.02-11.24,.26-.09,14.46,1.94,14.46,1.94Z"/><path class="b" d="M69.95,53.25s-2.24,.41-3.69,2.29c4.97,2.2,27.54,9.51,37.43,7,11.06-2.81,21.86-1.44,25.55-4.74,2.08-1.86,5.7-5.16,8.52-8.98-4.06-.57-9.01-1.24-9.16-1.19-.26,.09-16.86,9.39-25.02,11.24-8.16,1.84-33.62-5.62-33.62-5.62Z"/><path class="f" d="M115.69,38.41s-13.98,1.21-15.54,0c-2.81-2.18-3.77-12.12,6.32-13.17s13.86,1.9,18,1.4c5.09-.61,19.14,1.58,19.75,2.37s2.11,27.57-8.69,31.43c-10.8,3.86-13.56,4.81-18.66,5.07s-14.75,.02-20.02-1.65c-5.27-1.67-19.31-12.2-18.7-15.37s5.49-8.24,8.12-6.93c2.63,1.32,19.31,16.86,27.65,9.13,8.34-7.73,6.76-12.47,6.76-12.47,0,0-2.49-.35-5,.18Z"/><g><path class="e" d="M114.89,38.02s-11.72-.55-13.8-.48c-1.42,.04-2.47-3.36-2.84-4.52-.09,2.34,.75,4.51,1.89,5.4,1.56,1.21,15.54,0,15.54,0,2.51-.52,5-.18,5-.18,0,0-3.06-.74-5.8-.22Z"/><path class="e" d="M138.53,57.68c-11.77,3.86-18.71,7.94-24.24,7.47-9.99-.85-11.63-1.14-17.6-3.43-4.12-1.58-13.97-7.89-18.37-12.25,1.57,3.94,13.73,12.88,18.54,14.4,5.27,1.67,14.92,1.91,20.02,1.65s7.86-1.21,18.66-5.07c1.67-.6,3.04-1.74,4.18-3.26-.38,.19-.77,.35-1.18,.49Z"/></g><path class="f" d="M111.36,61.42l-2.78,2.29s-.41,1.89,1.82,4.41c.46,.52,1.04,1.07,1.76,1.63,1.18,.96-7.94,.1-12.07,2.42,5.88,1.58,14.56,.37,17.12,.14,4.77-.43,11.41-2.73,13.32-4.44,.26-.23,.56-.5,.87-.78,3.12-1.78,6.29-4.64,8.66-9.27,6.22-12.11-28.69,3.6-28.69,3.6Zm2.44,7.77s.03-.04,.06-.02l-.06,.02Z"/><path class="b" d="M143.1,49.37c-1.82,13.25-11.53,17.98-12.57,18.72s-5.36,2.9-10.37,3.77c4.37-1.54,5-2.81,7.43-4.17,3.52-1.97,2.99-2.06,4.5-3.79,.71-.81,4.43-3.73,5.09-4.66,.37-.14-3.48-.02-1.26-.7,1.43-.44,4.5-2.34,7.19-9.17Z"/><g><path class="b" d="M106.79,52.76c-.15,.13-.3,.25-.46,.36-.18,.14-.35,.25-.53,.36-.3,.19-.61,.35-.92,.49l-.13,.05c-.3,.13-.59,.23-.9,.32t-.02,0c-.31,.08-.63,.15-.96,.2-7.74,1.26-18.31-7.46-22.27-10.34,1.36-1.5,3.03-2.7,4.45-2.85,.09,0,.19-.02,.28-.02,.34,0,.66,.07,.96,.21,.08,.04,.17,.09,.27,.15,.15,.09,.34,.22,.55,.37,.23,.15,.49,.35,.79,.57,.24,.18,.5,.37,.77,.57,.24,.17,.47,.35,.73,.54,.09,.07,.19,.14,.3,.22,.47,.35,.98,.73,1.52,1.12,.9,.65,1.88,1.35,2.94,2.05,.24,.16,.48,.32,.73,.47,.74,.48,1.5,.95,2.27,1.4,.25,.15,.52,.3,.79,.45,.34,.19,.68,.37,1.02,.55,.39,.21,.78,.41,1.17,.59,.07,.03,.14,.07,.2,.1,.27,.13,.54,.25,.81,.36,.19,.08,.38,.17,.57,.25,0,0,0,0,0,0,.33,.14,.65,.26,.98,.38h0c.06,.03,.12,.04,.18,.07l.53,.18c.11,.04,.23,.08,.34,.11,.21,.07,.42,.13,.63,.19,.27,.08,.54,.14,.81,.2,.25,.06,.48,.11,.73,.14,.25,.05,.48,.08,.72,.11,.05,.02,.09,.02,.14,.03Z"/><path class="b" d="M144.22,29.02c-.61-.79-14.66-2.98-19.75-2.37-4.13,.5-7.9-2.46-18-1.4-2.12,.22-3.74,.84-4.97,1.69,8.67-.52,12.21,2.03,16.07,1.56,5.09-.61,16.48,1.58,19.06,4.83,2.99,3.76,2.8,25.11-8,28.97-3.41,1.22-6.02,2.15-8.15,2.86,3.41-.56,7-1.82,15.05-4.7,10.8-3.86,9.31-30.64,8.69-31.43Z"/></g><path class="e" d="M114.24,70.3c-.16,.05-.34,.1-.52,.15-1.22,.37-2.76,.81-4.42,1.25-1.43,.24-2.87,.54-4.32,.9-.36,.09-.73,.17-1.12,.24-.19,.03-.39,.06-.59,.09-.2,.02-.4,.05-.61,.07-11.88,1.25-34.69-6.6-36.05-7.89-.02-.02-.04-.03-.04-.05-.16-.25-.29-.47-.4-.66,0-.01,0-.02-.01-.03-.37-.76-.39-1.25-.58-1.86-.05-.17-.21-.55-.23-.87-.04-.16-.07-.3-.09-.45-.02-.07-.03-.15-.04-.22-.02-.07-.03-.14-.04-.21-.04-.27-.07-.54-.09-.79,.41,.21,.98,.54,1.76,1.02,3.51,2.18,25.38,9.93,36.77,9.12,1.42-.1,7.21,.46,9.77,.3,.2-.01,.38-.03,.54-.06,.12-.01,.22-.03,.31-.05Z"/><path class="i" d="M113.93,70.35c-.05,.03-.12,.06-.21,.1-.37,.17-1.01,.45-2.03,.87-.79,.11-1.59,.24-2.39,.38-1.43,.24-2.87,.54-4.32,.9-.36,.09-.73,.17-1.12,.24-.19,.03-.39,.06-.59,.09-.2,.02-.4,.05-.61,.07-11.88,1.25-34.69-6.6-36.05-7.89-.02-.02-.04-.03-.04-.05-.16-.25-.29-.47-.4-.66,0-.01,0-.02-.01-.03-.37-.76-.39-1.25-.58-1.86-.05-.17-.21-.55-.23-.87-.03-.56,.39-.91,2.62,.47,3.51,2.18,26.02,11.93,37.08,9.12,.68-.17,4.46,.03,5.17-.16,.18,.15,1.92-.44,2.12-.3,0,0,.56-.2,1.05-.36,.59-.19,1.1-.33,.54-.06Z"/><polygon class="f" points="116.35 71.53 109.54 72.71 107.39 68.35 114.18 68.35 116.35 71.53"/></g><g><path class="c" d="M97.05,184.68h-32.78c-1.74,0-2.78-1.94-1.82-3.39l2.4-3.65c.41-.62,1.09-.98,1.82-.98h3.21c.19,.77,.88,1.39,1.77,1.39h18.01c.89,0,1.58-.62,1.77-1.39h3.21c.74,0,1.42,.37,1.82,.98l2.4,3.65c.95,1.45-.09,3.39-1.82,3.39Z"/><path class="c" d="M92.75,174.57h-1.82l-1.05-2.39c-.29-.67-.94-1.09-1.67-1.09h-15.11c-.72,0-1.38,.43-1.67,1.09l-1.04,2.39h-.72c-4.82,0-8.55-4.59-8.34-10.14l2.49-61.64c.16-4.17,3.58-7.48,7.65-7.48h19.48c4.07,0,7.49,3.32,7.65,7.48l2.49,61.64c.21,5.55-3.52,10.14-8.34,10.14Z"/><path class="i" d="M74.48,107.81h4.47l.4,1.88h.14c1.49-1.36,3.53-2.33,5.51-2.33,4.62,0,7.42,3.7,7.42,9.41,0,6.34-3.88,9.99-8.03,9.99-1.62,0-3.23-.72-4.55-2h-.13l.26,3v11.97h0c-3.03,0-5.49-2.46-5.49-5.49v-26.43Zm12.32,9.02c0-3.32-1.09-4.97-3.41-4.97-1.17,0-2.26,.5-3.41,1.72v7.47c1.03,.91,2.21,1.23,3.17,1.23,2.02,0,3.66-1.61,3.66-5.44Z"/><path class="c" d="M74.66,152.45v-10.43c0-2.71,.61-5.1-1.59-6.73-3.82-2.84-2.91-4.69-2.22-8.13,1.28,1.12,1.67,4.85,5.68,5.75,2.25,.5,3.25,1.98,3.62,3.18v16.58c0,2.29,1.47,3.03,3.02,3.03,.86,0,1.76-.18,2.88-.61l1.21,4.03c-1.92,.63-3.22,1-5.52,1-4.66,0-7.08-2.99-7.08-7.68Z"/><path class="e" d="M74.43,154.3v-10.43c0-2.71,.61-5.1-1.59-6.73-3.82-2.84-2.91-4.69-2.22-8.13,1.28,1.12,1.67,4.85,5.68,5.75,2.25,.5,3.25,1.98,3.62,3.18v16.58c0,2.29,1.47,3.03,3.02,3.03,.86,0,1.76-.18,2.88-.61l1.21,4.03c-1.92,.63-3.22,1-5.52,1-4.66,0-7.08-2.99-7.08-7.68Z"/><path class="c" d="M89.67,98.79h-18.01c-1.31,0-2.2-1.35-1.67-2.55l1.45-3.32c.29-.66,.95-1.09,1.67-1.09h15.11c.72,0,1.38,.43,1.67,1.09l1.45,3.32c.53,1.2-.36,2.55-1.67,2.55Z"/><path class="c" d="M80.78,83.78c-2.58,0-4.66,2.09-4.66,4.66s2.09,4.66,4.66,4.66,4.66-2.09,4.66-4.66-2.09-4.66-4.66-4.66Zm0,6.65c-1.1,0-1.99-.89-1.99-1.99s.89-1.99,1.99-1.99,1.99,.89,1.99,1.99-.89,1.99-1.99,1.99Z"/></g><line class="g" x1="81.2" y1="57.4" x2="81.2" y2="69.24"/><line class="h" x1="80.6" y1="55.35" x2="80.6" y2="87.99"/></g></g></g></svg>