<svg width="715" height="800" viewBox="0 0 715 800" fill="none" xmlns="http://www.w3.org/2000/svg">
<path d="M334.5 16C252.333 33.3333 88 106.9 88 262.5" stroke="#F15A24" stroke-width="4"/>
<path d="M144 557C161.298 632.667 234.716 784 390 784" stroke="#F15A24" stroke-width="4"/>
<path d="M557.5 352C540.167 434.167 466.6 598.5 311 598.5" stroke="#F15A24" stroke-width="4"/>
<path d="M538 412C521.616 345.333 452.078 212 305 212" stroke="#F15A24" stroke-width="4"/>
<rect x="346" y="352" width="369" height="96" rx="48" fill="#1B1B30"/>
<rect x="370" y="368" width="64" height="64" rx="32" fill="white"/>
<path d="M388.741 410.02L396.859 401.82L401.245 406.02L406.607 401.333L409.593 404.245M415.333 391.333C415.333 390.803 415.122 390.294 414.747 389.919C414.372 389.544 413.864 389.333 413.333 389.333H390.667C390.136 389.333 389.627 389.544 389.252 389.919C388.877 390.294 388.667 390.803 388.667 391.333V397.333H415.333V391.333Z" stroke="#F15A24" stroke-width="2.66667" stroke-linecap="round" stroke-linejoin="round"/>
<path d="M415.333 396V408.667C415.333 409.197 415.122 409.706 414.747 410.081C414.372 410.456 413.864 410.667 413.333 410.667H394M398.741 393.333H410.741M393.407 393.333H394.74M388.667 396V402" stroke="#F15A24" stroke-width="2.66667" stroke-linecap="round" stroke-linejoin="round"/>
<path d="M457.632 388.336C459.088 388.336 460.32 388.584 461.328 389.08C462.336 389.56 463.104 390.248 463.632 391.144C464.16 392.024 464.424 393.072 464.424 394.288C464.424 395.008 464.312 395.736 464.088 396.472C463.88 397.192 463.536 397.848 463.056 398.44C462.592 399.032 461.96 399.512 461.16 399.88C460.376 400.232 459.408 400.408 458.256 400.408H455.76V406H452.28V388.336H457.632ZM458.232 397.024C458.76 397.024 459.2 396.936 459.552 396.76C459.904 396.568 460.176 396.336 460.368 396.064C460.576 395.776 460.72 395.48 460.8 395.176C460.896 394.872 460.944 394.608 460.944 394.384C460.944 394.208 460.912 393.976 460.848 393.688C460.8 393.384 460.688 393.08 460.512 392.776C460.336 392.472 460.064 392.216 459.696 392.008C459.344 391.8 458.864 391.696 458.256 391.696H455.76V397.024H458.232ZM469.53 395.512L469.842 398.392L469.77 397.96C470.074 397.336 470.49 396.808 471.018 396.376C471.546 395.928 472.066 395.584 472.578 395.344C473.106 395.104 473.506 394.984 473.778 394.984L473.61 398.344C472.826 398.248 472.154 398.376 471.594 398.728C471.034 399.08 470.602 399.544 470.298 400.12C469.994 400.696 469.842 401.288 469.842 401.896V406H466.506V395.512H469.53ZM474.585 400.624C474.585 399.552 474.833 398.592 475.329 397.744C475.841 396.896 476.553 396.232 477.465 395.752C478.377 395.256 479.425 395.008 480.609 395.008C481.809 395.008 482.849 395.256 483.729 395.752C484.609 396.232 485.281 396.896 485.745 397.744C486.225 398.592 486.465 399.552 486.465 400.624C486.465 401.696 486.225 402.664 485.745 403.528C485.281 404.376 484.609 405.048 483.729 405.544C482.849 406.04 481.793 406.288 480.561 406.288C479.409 406.288 478.377 406.064 477.465 405.616C476.569 405.168 475.865 404.52 475.353 403.672C474.841 402.824 474.585 401.808 474.585 400.624ZM477.969 400.648C477.969 401.192 478.081 401.688 478.305 402.136C478.529 402.568 478.833 402.912 479.217 403.168C479.601 403.424 480.033 403.552 480.513 403.552C481.041 403.552 481.497 403.424 481.881 403.168C482.265 402.912 482.561 402.568 482.769 402.136C482.977 401.688 483.081 401.192 483.081 400.648C483.081 400.088 482.977 399.592 482.769 399.16C482.561 398.728 482.265 398.384 481.881 398.128C481.497 397.872 481.041 397.744 480.513 397.744C480.033 397.744 479.601 397.872 479.217 398.128C478.833 398.384 478.529 398.728 478.305 399.16C478.081 399.592 477.969 400.088 477.969 400.648ZM492.904 406.288C491.928 406.288 491.056 406.064 490.288 405.616C489.52 405.152 488.912 404.488 488.464 403.624C488.032 402.76 487.816 401.736 487.816 400.552C487.816 399.368 488.056 398.36 488.536 397.528C489.016 396.696 489.672 396.064 490.504 395.632C491.336 395.2 492.28 394.984 493.336 394.984C494.008 394.984 494.648 395.088 495.256 395.296C495.88 395.504 496.4 395.824 496.816 396.256V397.312V387.064H500.152V406H496.792V403.96L497.056 404.68C496.512 405.128 495.904 405.512 495.232 405.832C494.56 406.136 493.784 406.288 492.904 406.288ZM494.008 403.456C494.456 403.456 494.848 403.4 495.184 403.288C495.536 403.16 495.84 402.984 496.096 402.76C496.368 402.52 496.6 402.224 496.792 401.872V399.304C496.664 398.952 496.464 398.656 496.192 398.416C495.936 398.16 495.616 397.968 495.232 397.84C494.864 397.696 494.456 397.624 494.008 397.624C493.512 397.624 493.048 397.752 492.616 398.008C492.2 398.248 491.864 398.584 491.608 399.016C491.352 399.448 491.224 399.944 491.224 400.504C491.224 401.064 491.352 401.568 491.608 402.016C491.864 402.464 492.2 402.816 492.616 403.072C493.048 403.328 493.512 403.456 494.008 403.456ZM506.512 406.504C505.568 406.504 504.776 406.216 504.136 405.64C503.496 405.048 503.16 404.288 503.128 403.36V395.512H506.488V402.112C506.52 402.576 506.64 402.952 506.848 403.24C507.056 403.512 507.408 403.648 507.904 403.648C508.4 403.648 508.824 403.48 509.176 403.144C509.544 402.808 509.824 402.352 510.016 401.776C510.224 401.184 510.328 400.52 510.328 399.784V395.512H513.688V406H510.64L510.376 404.08L510.424 404.296C510.184 404.728 509.88 405.112 509.512 405.448C509.144 405.784 508.704 406.04 508.192 406.216C507.696 406.408 507.136 406.504 506.512 406.504ZM525.568 405.064C525.104 405.432 524.52 405.728 523.816 405.952C523.128 406.176 522.448 406.288 521.776 406.288C520.576 406.288 519.528 406.072 518.632 405.64C517.752 405.192 517.064 404.56 516.568 403.744C516.088 402.912 515.848 401.912 515.848 400.744C515.848 399.576 516.112 398.584 516.64 397.768C517.168 396.936 517.856 396.304 518.704 395.872C519.568 395.44 520.472 395.224 521.416 395.224C522.36 395.224 523.176 395.352 523.864 395.608C524.568 395.864 525.168 396.2 525.664 396.616L524.032 398.776C523.808 398.6 523.496 398.424 523.096 398.248C522.712 398.056 522.256 397.96 521.728 397.96C521.264 397.96 520.84 398.08 520.456 398.32C520.072 398.56 519.768 398.888 519.544 399.304C519.32 399.72 519.208 400.2 519.208 400.744C519.208 401.256 519.328 401.728 519.568 402.16C519.808 402.592 520.136 402.936 520.552 403.192C520.984 403.432 521.488 403.552 522.064 403.552C522.432 403.552 522.768 403.504 523.072 403.408C523.392 403.296 523.664 403.144 523.888 402.952L525.568 405.064ZM528.652 390.904H532.012V395.464H534.556V398.08H532.012V406H528.652V398.08H527.02V395.464H528.652V390.904ZM544.51 406V387.616H544.534L554.35 401.536L552.862 401.2L562.654 387.616H562.702V406H559.222V395.464L559.438 397.264L553.462 405.76H553.414L547.27 397.264L547.87 395.608V406H544.51ZM570.652 406.288C569.676 406.288 568.788 406.096 567.988 405.712C567.204 405.312 566.58 404.704 566.116 403.888C565.652 403.072 565.42 402.032 565.42 400.768C565.42 399.584 565.66 398.56 566.14 397.696C566.62 396.832 567.252 396.168 568.036 395.704C568.82 395.224 569.652 394.984 570.532 394.984C571.572 394.984 572.356 395.16 572.884 395.512C573.428 395.848 573.876 396.224 574.228 396.64L574.084 397.048L574.396 395.512H577.516V406H574.156V403.72L574.42 404.44C574.388 404.44 574.292 404.536 574.132 404.728C573.972 404.904 573.732 405.12 573.412 405.376C573.108 405.616 572.724 405.824 572.26 406C571.812 406.192 571.276 406.288 570.652 406.288ZM571.612 403.552C572.012 403.552 572.372 403.496 572.692 403.384C573.012 403.256 573.292 403.08 573.532 402.856C573.772 402.616 573.98 402.32 574.156 401.968V399.4C574.028 399.048 573.836 398.752 573.58 398.512C573.324 398.256 573.02 398.064 572.668 397.936C572.316 397.792 571.924 397.72 571.492 397.72C571.012 397.72 570.564 397.848 570.148 398.104C569.748 398.344 569.428 398.68 569.188 399.112C568.948 399.544 568.828 400.04 568.828 400.6C568.828 401.16 568.956 401.664 569.212 402.112C569.468 402.56 569.804 402.912 570.22 403.168C570.652 403.424 571.116 403.552 571.612 403.552ZM583.546 395.512L583.81 397.384L583.762 397.216C584.13 396.56 584.65 396.032 585.322 395.632C585.994 395.216 586.818 395.008 587.794 395.008C588.786 395.008 589.61 395.304 590.266 395.896C590.938 396.472 591.282 397.224 591.298 398.152V406H587.938V399.4C587.922 398.936 587.794 398.568 587.554 398.296C587.33 398.008 586.946 397.864 586.402 397.864C585.89 397.864 585.442 398.032 585.058 398.368C584.674 398.704 584.378 399.16 584.17 399.736C583.962 400.312 583.858 400.976 583.858 401.728V406H580.498V395.512H583.546ZM598.684 406.288C597.708 406.288 596.82 406.096 596.02 405.712C595.236 405.312 594.612 404.704 594.148 403.888C593.684 403.072 593.452 402.032 593.452 400.768C593.452 399.584 593.692 398.56 594.172 397.696C594.652 396.832 595.284 396.168 596.068 395.704C596.852 395.224 597.684 394.984 598.564 394.984C599.604 394.984 600.388 395.16 600.916 395.512C601.46 395.848 601.908 396.224 602.26 396.64L602.116 397.048L602.428 395.512H605.548V406H602.188V403.72L602.452 404.44C602.42 404.44 602.324 404.536 602.164 404.728C602.004 404.904 601.764 405.12 601.444 405.376C601.14 405.616 600.756 405.824 600.292 406C599.844 406.192 599.308 406.288 598.684 406.288ZM599.644 403.552C600.044 403.552 600.404 403.496 600.724 403.384C601.044 403.256 601.324 403.08 601.564 402.856C601.804 402.616 602.012 402.32 602.188 401.968V399.4C602.06 399.048 601.868 398.752 601.612 398.512C601.356 398.256 601.052 398.064 600.7 397.936C600.348 397.792 599.956 397.72 599.524 397.72C599.044 397.72 598.596 397.848 598.18 398.104C597.78 398.344 597.46 398.68 597.22 399.112C596.98 399.544 596.86 400.04 596.86 400.6C596.86 401.16 596.988 401.664 597.244 402.112C597.5 402.56 597.836 402.912 598.252 403.168C598.684 403.424 599.148 403.552 599.644 403.552ZM613.955 411.28C613.011 411.28 612.211 411.168 611.555 410.944C610.915 410.72 610.371 410.448 609.923 410.128C609.475 409.808 609.075 409.504 608.723 409.216L610.691 406.912C611.059 407.248 611.483 407.568 611.963 407.872C612.459 408.192 613.107 408.352 613.907 408.352C614.435 408.352 614.923 408.256 615.371 408.064C615.835 407.888 616.203 407.624 616.475 407.272C616.763 406.92 616.907 406.48 616.907 405.952V403.648L617.027 404.248C616.771 404.792 616.307 405.272 615.635 405.688C614.963 406.088 614.083 406.288 612.995 406.288C612.051 406.288 611.171 406.048 610.355 405.568C609.555 405.072 608.915 404.408 608.435 403.576C607.955 402.728 607.715 401.768 607.715 400.696C607.715 399.592 607.971 398.616 608.483 397.768C608.995 396.904 609.659 396.224 610.475 395.728C611.291 395.232 612.155 394.984 613.067 394.984C613.979 394.984 614.763 395.12 615.419 395.392C616.091 395.648 616.595 395.968 616.931 396.352L616.811 396.664L617.171 395.512H620.267V406C620.267 407.024 619.979 407.928 619.403 408.712C618.827 409.512 618.059 410.136 617.099 410.584C616.155 411.048 615.107 411.28 613.955 411.28ZM611.099 400.6C611.099 401.16 611.227 401.664 611.483 402.112C611.739 402.56 612.083 402.912 612.515 403.168C612.963 403.424 613.459 403.552 614.003 403.552C614.467 403.552 614.875 403.496 615.227 403.384C615.595 403.256 615.915 403.08 616.187 402.856C616.475 402.616 616.715 402.32 616.907 401.968V399.4C616.763 399.048 616.547 398.752 616.259 398.512C615.971 398.256 615.635 398.064 615.251 397.936C614.883 397.792 614.467 397.72 614.003 397.72C613.459 397.72 612.963 397.848 612.515 398.104C612.083 398.344 611.739 398.68 611.483 399.112C611.227 399.544 611.099 400.04 611.099 400.6ZM628.398 406.288C627.118 406.288 626.03 406.048 625.134 405.568C624.254 405.088 623.582 404.424 623.118 403.576C622.654 402.728 622.422 401.752 622.422 400.648C622.422 399.592 622.694 398.64 623.238 397.792C623.782 396.944 624.51 396.272 625.422 395.776C626.334 395.264 627.35 395.008 628.47 395.008C629.974 395.008 631.206 395.448 632.166 396.328C633.142 397.192 633.774 398.448 634.062 400.096L625.902 402.688L625.158 400.864L631.062 398.872L630.366 399.184C630.238 398.768 630.006 398.408 629.67 398.104C629.35 397.784 628.862 397.624 628.206 397.624C627.71 397.624 627.27 397.744 626.886 397.984C626.518 398.208 626.23 398.536 626.022 398.968C625.83 399.384 625.734 399.88 625.734 400.456C625.734 401.112 625.854 401.664 626.094 402.112C626.334 402.544 626.662 402.872 627.078 403.096C627.494 403.32 627.958 403.432 628.47 403.432C628.838 403.432 629.19 403.368 629.526 403.24C629.878 403.112 630.222 402.944 630.558 402.736L632.046 405.232C631.486 405.552 630.878 405.808 630.222 406C629.582 406.192 628.974 406.288 628.398 406.288ZM639.072 395.512L639.336 397.36L639.288 397.216C639.704 396.512 640.224 395.968 640.848 395.584C641.472 395.184 642.224 394.984 643.104 394.984C643.68 394.984 644.184 395.064 644.616 395.224C645.064 395.384 645.44 395.624 645.744 395.944C646.048 396.248 646.256 396.648 646.368 397.144L646.248 397.168C646.696 396.512 647.232 395.984 647.856 395.584C648.496 395.184 649.16 394.984 649.848 394.984C650.888 394.984 651.712 395.28 652.32 395.872C652.944 396.448 653.264 397.2 653.28 398.128V406H649.944V399.52C649.928 399.056 649.856 398.68 649.728 398.392C649.6 398.088 649.304 397.92 648.84 397.888C648.296 397.888 647.832 398.08 647.448 398.464C647.08 398.832 646.8 399.312 646.608 399.904C646.432 400.48 646.344 401.08 646.344 401.704V406H642.984V399.52C642.968 399.056 642.88 398.68 642.72 398.392C642.576 398.088 642.272 397.92 641.808 397.888C641.28 397.888 640.832 398.08 640.464 398.464C640.112 398.832 639.84 399.304 639.648 399.88C639.472 400.456 639.384 401.048 639.384 401.656V406H636.024V395.512H639.072ZM661.422 406.288C660.142 406.288 659.054 406.048 658.158 405.568C657.278 405.088 656.606 404.424 656.142 403.576C655.678 402.728 655.446 401.752 655.446 400.648C655.446 399.592 655.718 398.64 656.262 397.792C656.806 396.944 657.534 396.272 658.446 395.776C659.358 395.264 660.374 395.008 661.494 395.008C662.998 395.008 664.23 395.448 665.19 396.328C666.166 397.192 666.798 398.448 667.086 400.096L658.926 402.688L658.182 400.864L664.086 398.872L663.39 399.184C663.262 398.768 663.03 398.408 662.694 398.104C662.374 397.784 661.886 397.624 661.23 397.624C660.734 397.624 660.294 397.744 659.91 397.984C659.542 398.208 659.254 398.536 659.046 398.968C658.854 399.384 658.758 399.88 658.758 400.456C658.758 401.112 658.878 401.664 659.118 402.112C659.358 402.544 659.686 402.872 660.102 403.096C660.518 403.32 660.982 403.432 661.494 403.432C661.862 403.432 662.214 403.368 662.55 403.24C662.902 403.112 663.246 402.944 663.582 402.736L665.07 405.232C664.51 405.552 663.902 405.808 663.246 406C662.606 406.192 661.998 406.288 661.422 406.288ZM672.096 395.512L672.36 397.384L672.312 397.216C672.68 396.56 673.2 396.032 673.872 395.632C674.544 395.216 675.368 395.008 676.344 395.008C677.336 395.008 678.16 395.304 678.816 395.896C679.488 396.472 679.832 397.224 679.848 398.152V406H676.488V399.4C676.472 398.936 676.344 398.568 676.104 398.296C675.88 398.008 675.496 397.864 674.952 397.864C674.44 397.864 673.992 398.032 673.608 398.368C673.224 398.704 672.928 399.16 672.72 399.736C672.512 400.312 672.408 400.976 672.408 401.728V406H669.048V395.512H672.096ZM683.802 390.904H687.162V395.464H689.706V398.08H687.162V406H683.802V398.08H682.17V395.464H683.802V390.904Z" fill="white"/>
<rect x="271" y="704" width="413" height="96" rx="48" fill="#1B1B30"/>
<rect x="295" y="720" width="64" height="64" rx="32" fill="white"/>
<path d="M342 752C342.001 750.852 341.72 749.721 341.18 748.707C340.641 747.693 339.861 746.827 338.908 746.186C337.955 745.545 336.859 745.148 335.717 745.03C334.574 744.913 333.421 745.078 332.357 745.512C331.294 745.945 330.353 746.634 329.619 747.516C328.884 748.399 328.378 749.449 328.145 750.574C327.913 751.698 327.96 752.863 328.283 753.965C328.607 755.067 329.196 756.072 330 756.892V764C330 764.171 330.043 764.338 330.126 764.487C330.209 764.636 330.329 764.762 330.474 764.851C330.619 764.941 330.785 764.992 330.955 765C331.125 765.007 331.295 764.971 331.448 764.895L335 763.118L338.552 764.895C338.705 764.971 338.875 765.007 339.045 765C339.215 764.992 339.381 764.941 339.526 764.851C339.671 764.762 339.791 764.636 339.874 764.487C339.957 764.338 340 764.171 340 764V756.892C341.283 755.587 342.001 753.83 342 752ZM335 747C335.989 747 336.956 747.293 337.778 747.843C338.6 748.392 339.241 749.173 339.619 750.087C339.998 751 340.097 752.006 339.904 752.975C339.711 753.945 339.235 754.836 338.536 755.536C337.836 756.235 336.945 756.711 335.975 756.904C335.006 757.097 334 756.998 333.087 756.619C332.173 756.241 331.392 755.6 330.843 754.778C330.293 753.956 330 752.989 330 752C330 750.674 330.527 749.402 331.464 748.464C332.402 747.527 333.674 747 335 747ZM335.448 761.105C335.309 761.035 335.155 760.999 335 760.999C334.845 760.999 334.691 761.035 334.552 761.105L332 762.382V758.324C332.937 758.769 333.962 759 335 759C336.038 759 337.063 758.769 338 758.324V762.382L335.448 761.105ZM328 760C328 760.265 327.895 760.52 327.707 760.707C327.52 760.895 327.265 761 327 761H316C315.47 761 314.961 760.789 314.586 760.414C314.211 760.039 314 759.53 314 759V743C314 742.47 314.211 741.961 314.586 741.586C314.961 741.211 315.47 741 316 741H338C338.53 741 339.039 741.211 339.414 741.586C339.789 741.961 340 742.47 340 743C340 743.265 339.895 743.52 339.707 743.707C339.52 743.895 339.265 744 339 744C338.735 744 338.48 743.895 338.293 743.707C338.105 743.52 338 743.265 338 743H316V759H327C327.265 759 327.52 759.105 327.707 759.293C327.895 759.48 328 759.735 328 760ZM326 753C326 753.265 325.895 753.52 325.707 753.707C325.52 753.895 325.265 754 325 754H320C319.735 754 319.48 753.895 319.293 753.707C319.105 753.52 319 753.265 319 753C319 752.735 319.105 752.48 319.293 752.293C319.48 752.105 319.735 752 320 752H325C325.265 752 325.52 752.105 325.707 752.293C325.895 752.48 326 752.735 326 753ZM326 749C326 749.265 325.895 749.52 325.707 749.707C325.52 749.895 325.265 750 325 750H320C319.735 750 319.48 749.895 319.293 749.707C319.105 749.52 319 749.265 319 749C319 748.735 319.105 748.48 319.293 748.293C319.48 748.105 319.735 748 320 748H325C325.265 748 325.52 748.105 325.707 748.293C325.895 748.48 326 748.735 326 749Z" fill="#F15A24"/>
<path d="M390.528 756.536C390.336 756.696 389.976 756.912 389.448 757.184C388.936 757.456 388.304 757.696 387.552 757.904C386.8 758.112 385.968 758.208 385.056 758.192C383.664 758.16 382.416 757.912 381.312 757.448C380.224 756.968 379.296 756.32 378.528 755.504C377.776 754.688 377.2 753.752 376.8 752.696C376.4 751.64 376.2 750.512 376.2 749.312C376.2 747.968 376.4 746.736 376.8 745.616C377.216 744.496 377.8 743.528 378.552 742.712C379.32 741.896 380.232 741.264 381.288 740.816C382.344 740.368 383.512 740.144 384.792 740.144C385.976 740.144 387.024 740.304 387.936 740.624C388.848 740.944 389.592 741.288 390.168 741.656L388.8 744.944C388.4 744.64 387.864 744.328 387.192 744.008C386.536 743.672 385.776 743.504 384.912 743.504C384.24 743.504 383.592 743.648 382.968 743.936C382.36 744.208 381.816 744.6 381.336 745.112C380.872 745.624 380.504 746.224 380.232 746.912C379.96 747.584 379.824 748.32 379.824 749.12C379.824 749.968 379.944 750.744 380.184 751.448C380.44 752.152 380.8 752.76 381.264 753.272C381.728 753.768 382.28 754.152 382.92 754.424C383.576 754.696 384.312 754.832 385.128 754.832C386.072 754.832 386.88 754.68 387.552 754.376C388.224 754.072 388.736 753.752 389.088 753.416L390.528 756.536ZM398.142 758.288C396.862 758.288 395.774 758.048 394.878 757.568C393.998 757.088 393.326 756.424 392.862 755.576C392.398 754.728 392.166 753.752 392.166 752.648C392.166 751.592 392.438 750.64 392.982 749.792C393.526 748.944 394.254 748.272 395.166 747.776C396.078 747.264 397.094 747.008 398.214 747.008C399.718 747.008 400.95 747.448 401.91 748.328C402.886 749.192 403.518 750.448 403.806 752.096L395.646 754.688L394.902 752.864L400.806 750.872L400.11 751.184C399.982 750.768 399.75 750.408 399.414 750.104C399.094 749.784 398.606 749.624 397.95 749.624C397.454 749.624 397.014 749.744 396.63 749.984C396.262 750.208 395.974 750.536 395.766 750.968C395.574 751.384 395.478 751.88 395.478 752.456C395.478 753.112 395.598 753.664 395.838 754.112C396.078 754.544 396.406 754.872 396.822 755.096C397.238 755.32 397.702 755.432 398.214 755.432C398.582 755.432 398.934 755.368 399.27 755.24C399.622 755.112 399.966 754.944 400.302 754.736L401.79 757.232C401.23 757.552 400.622 757.808 399.966 758C399.326 758.192 398.718 758.288 398.142 758.288ZM408.792 747.512L409.104 750.392L409.032 749.96C409.336 749.336 409.752 748.808 410.28 748.376C410.808 747.928 411.328 747.584 411.84 747.344C412.368 747.104 412.768 746.984 413.04 746.984L412.872 750.344C412.088 750.248 411.416 750.376 410.856 750.728C410.296 751.08 409.864 751.544 409.56 752.12C409.256 752.696 409.104 753.288 409.104 753.896V758H405.768V747.512H408.792ZM416.116 742.904H419.476V747.464H422.02V750.08H419.476V758H416.116V750.08H414.484V747.464H416.116V742.904ZM424.097 747.512H427.457V758H424.097V747.512ZM424.025 743.792C424.025 743.296 424.217 742.888 424.601 742.568C425.001 742.248 425.425 742.088 425.873 742.088C426.321 742.088 426.729 742.248 427.097 742.568C427.481 742.888 427.673 743.296 427.673 743.792C427.673 744.288 427.481 744.696 427.097 745.016C426.729 745.32 426.321 745.472 425.873 745.472C425.425 745.472 425.001 745.32 424.601 745.016C424.217 744.696 424.025 744.288 424.025 743.792ZM431.445 758V750.44H429.669V747.464H431.445V743.816C431.445 742.44 431.837 741.32 432.621 740.456C433.421 739.576 434.573 739.136 436.077 739.136C436.525 739.136 437.021 739.208 437.565 739.352C438.125 739.48 438.613 739.696 439.029 740L437.613 742.424C437.453 742.216 437.261 742.08 437.037 742.016C436.829 741.936 436.629 741.896 436.437 741.896C435.957 741.896 435.565 742.056 435.261 742.376C434.957 742.696 434.805 743.208 434.805 743.912V747.464H437.493V750.44H434.805V758H431.445ZM438.837 747.512H442.197V758H438.837V747.512ZM438.765 743.792C438.765 743.296 438.957 742.888 439.341 742.568C439.741 742.248 440.165 742.088 440.613 742.088C441.061 742.088 441.469 742.248 441.837 742.568C442.221 742.888 442.413 743.296 442.413 743.792C442.413 744.288 442.221 744.696 441.837 745.016C441.469 745.32 441.061 745.472 440.613 745.472C440.165 745.472 439.741 745.32 439.341 745.016C438.957 744.696 438.765 744.288 438.765 743.792ZM454.072 757.064C453.608 757.432 453.024 757.728 452.32 757.952C451.632 758.176 450.952 758.288 450.28 758.288C449.08 758.288 448.032 758.072 447.136 757.64C446.256 757.192 445.568 756.56 445.072 755.744C444.592 754.912 444.352 753.912 444.352 752.744C444.352 751.576 444.616 750.584 445.144 749.768C445.672 748.936 446.36 748.304 447.208 747.872C448.072 747.44 448.976 747.224 449.92 747.224C450.864 747.224 451.68 747.352 452.368 747.608C453.072 747.864 453.672 748.2 454.168 748.616L452.536 750.776C452.312 750.6 452 750.424 451.6 750.248C451.216 750.056 450.76 749.96 450.232 749.96C449.768 749.96 449.344 750.08 448.96 750.32C448.576 750.56 448.272 750.888 448.048 751.304C447.824 751.72 447.712 752.2 447.712 752.744C447.712 753.256 447.832 753.728 448.072 754.16C448.312 754.592 448.64 754.936 449.056 755.192C449.488 755.432 449.992 755.552 450.568 755.552C450.936 755.552 451.272 755.504 451.576 755.408C451.896 755.296 452.168 755.144 452.392 754.952L454.072 757.064ZM460.589 758.288C459.613 758.288 458.725 758.096 457.925 757.712C457.141 757.312 456.517 756.704 456.053 755.888C455.589 755.072 455.357 754.032 455.357 752.768C455.357 751.584 455.597 750.56 456.077 749.696C456.557 748.832 457.189 748.168 457.973 747.704C458.757 747.224 459.589 746.984 460.469 746.984C461.509 746.984 462.293 747.16 462.821 747.512C463.365 747.848 463.813 748.224 464.165 748.64L464.021 749.048L464.333 747.512H467.453V758H464.093V755.72L464.357 756.44C464.325 756.44 464.229 756.536 464.069 756.728C463.909 756.904 463.669 757.12 463.349 757.376C463.045 757.616 462.661 757.824 462.197 758C461.749 758.192 461.213 758.288 460.589 758.288ZM461.549 755.552C461.949 755.552 462.309 755.496 462.629 755.384C462.949 755.256 463.229 755.08 463.469 754.856C463.709 754.616 463.917 754.32 464.093 753.968V751.4C463.965 751.048 463.773 750.752 463.517 750.512C463.261 750.256 462.957 750.064 462.605 749.936C462.253 749.792 461.861 749.72 461.429 749.72C460.949 749.72 460.501 749.848 460.085 750.104C459.685 750.344 459.365 750.68 459.125 751.112C458.885 751.544 458.765 752.04 458.765 752.6C458.765 753.16 458.893 753.664 459.149 754.112C459.405 754.56 459.741 754.912 460.157 755.168C460.589 755.424 461.053 755.552 461.549 755.552ZM471.419 742.904H474.779V747.464H477.323V750.08H474.779V758H471.419V750.08H469.787V747.464H471.419V742.904ZM479.4 747.512H482.76V758H479.4V747.512ZM479.328 743.792C479.328 743.296 479.52 742.888 479.904 742.568C480.304 742.248 480.728 742.088 481.176 742.088C481.624 742.088 482.032 742.248 482.4 742.568C482.784 742.888 482.976 743.296 482.976 743.792C482.976 744.288 482.784 744.696 482.4 745.016C482.032 745.32 481.624 745.472 481.176 745.472C480.728 745.472 480.304 745.32 479.904 745.016C479.52 744.696 479.328 744.288 479.328 743.792ZM484.924 752.624C484.924 751.552 485.172 750.592 485.668 749.744C486.18 748.896 486.892 748.232 487.804 747.752C488.716 747.256 489.764 747.008 490.948 747.008C492.148 747.008 493.188 747.256 494.068 747.752C494.948 748.232 495.62 748.896 496.084 749.744C496.564 750.592 496.804 751.552 496.804 752.624C496.804 753.696 496.564 754.664 496.084 755.528C495.62 756.376 494.948 757.048 494.068 757.544C493.188 758.04 492.132 758.288 490.9 758.288C489.748 758.288 488.716 758.064 487.804 757.616C486.908 757.168 486.204 756.52 485.692 755.672C485.18 754.824 484.924 753.808 484.924 752.624ZM488.308 752.648C488.308 753.192 488.42 753.688 488.644 754.136C488.868 754.568 489.172 754.912 489.556 755.168C489.94 755.424 490.372 755.552 490.852 755.552C491.38 755.552 491.836 755.424 492.22 755.168C492.604 754.912 492.9 754.568 493.108 754.136C493.316 753.688 493.42 753.192 493.42 752.648C493.42 752.088 493.316 751.592 493.108 751.16C492.9 750.728 492.604 750.384 492.22 750.128C491.836 749.872 491.38 749.744 490.852 749.744C490.372 749.744 489.94 749.872 489.556 750.128C489.172 750.384 488.868 750.728 488.644 751.16C488.42 751.592 488.308 752.088 488.308 752.648ZM502.019 747.512L502.283 749.384L502.235 749.216C502.603 748.56 503.123 748.032 503.795 747.632C504.467 747.216 505.291 747.008 506.267 747.008C507.259 747.008 508.083 747.304 508.739 747.896C509.411 748.472 509.755 749.224 509.771 750.152V758H506.411V751.4C506.395 750.936 506.267 750.568 506.027 750.296C505.803 750.008 505.419 749.864 504.875 749.864C504.363 749.864 503.915 750.032 503.531 750.368C503.147 750.704 502.851 751.16 502.643 751.736C502.435 752.312 502.331 752.976 502.331 753.728V758H498.971V747.512H502.019ZM535.498 758C535.274 758 534.938 758 534.49 758C534.058 758 533.61 758 533.146 758C532.682 758 532.282 758 531.946 758C531.626 758 531.466 758 531.466 758L523.69 747.536C523.53 747.312 523.33 747.008 523.09 746.624C522.85 746.224 522.642 745.784 522.466 745.304C522.29 744.808 522.202 744.312 522.202 743.816C522.202 743.176 522.362 742.544 522.682 741.92C523.018 741.28 523.522 740.752 524.194 740.336C524.882 739.904 525.746 739.688 526.786 739.688C527.922 739.688 528.922 739.92 529.786 740.384C530.65 740.848 531.338 741.408 531.85 742.064L530.098 744.392C529.602 743.848 529.122 743.416 528.658 743.096C528.21 742.776 527.77 742.616 527.338 742.616C526.794 742.616 526.402 742.776 526.162 743.096C525.922 743.416 525.802 743.768 525.802 744.152C525.802 744.376 525.858 744.624 525.97 744.896C526.098 745.152 526.226 745.392 526.354 745.616C526.482 745.824 526.57 745.968 526.618 746.048L535.498 758ZM525.778 749.96C525.394 749.96 525.034 750.04 524.698 750.2C524.362 750.344 524.066 750.544 523.81 750.8C523.554 751.056 523.354 751.344 523.21 751.664C523.082 751.984 523.018 752.32 523.018 752.672C523.018 753.168 523.138 753.608 523.378 753.992C523.634 754.36 523.978 754.648 524.41 754.856C524.842 755.064 525.314 755.168 525.826 755.168C526.354 755.168 526.786 755.096 527.122 754.952C527.474 754.792 527.762 754.584 527.986 754.328C528.226 754.072 528.418 753.792 528.562 753.488L530.794 755.336C530.362 756.152 529.698 756.848 528.802 757.424C527.922 758 526.77 758.288 525.346 758.288C524.242 758.288 523.242 758.056 522.346 757.592C521.45 757.128 520.738 756.488 520.21 755.672C519.682 754.856 519.418 753.92 519.418 752.864C519.418 752.064 519.594 751.328 519.946 750.656C520.314 749.984 520.802 749.4 521.41 748.904C522.018 748.408 522.698 748.016 523.45 747.728C524.202 747.424 524.97 747.264 525.754 747.248L525.778 749.96ZM531.01 747.248H534.178L531.202 754.736L528.682 753.248L531.01 747.248ZM558.476 756.536C558.284 756.696 557.924 756.912 557.396 757.184C556.884 757.456 556.252 757.696 555.5 757.904C554.748 758.112 553.916 758.208 553.004 758.192C551.612 758.16 550.364 757.912 549.26 757.448C548.172 756.968 547.244 756.32 546.476 755.504C545.724 754.688 545.148 753.752 544.748 752.696C544.348 751.64 544.148 750.512 544.148 749.312C544.148 747.968 544.348 746.736 544.748 745.616C545.164 744.496 545.748 743.528 546.5 742.712C547.268 741.896 548.18 741.264 549.236 740.816C550.292 740.368 551.46 740.144 552.74 740.144C553.924 740.144 554.972 740.304 555.884 740.624C556.796 740.944 557.54 741.288 558.116 741.656L556.748 744.944C556.348 744.64 555.812 744.328 555.14 744.008C554.484 743.672 553.724 743.504 552.86 743.504C552.188 743.504 551.54 743.648 550.916 743.936C550.308 744.208 549.764 744.6 549.284 745.112C548.82 745.624 548.452 746.224 548.18 746.912C547.908 747.584 547.772 748.32 547.772 749.12C547.772 749.968 547.892 750.744 548.132 751.448C548.388 752.152 548.748 752.76 549.212 753.272C549.676 753.768 550.228 754.152 550.868 754.424C551.524 754.696 552.26 754.832 553.076 754.832C554.02 754.832 554.828 754.68 555.5 754.376C556.172 754.072 556.684 753.752 557.036 753.416L558.476 756.536ZM564.147 740.336L569.307 753.056L567.291 752.648L571.971 740.336H576.099L568.035 758.816L559.971 740.336H564.147ZM591.351 740.336C592.455 740.336 593.439 740.48 594.303 740.768C595.167 741.04 595.887 741.44 596.463 741.968C597.055 742.48 597.503 743.104 597.807 743.84C598.111 744.56 598.263 745.376 598.263 746.288C598.263 747.008 598.151 747.728 597.927 748.448C597.719 749.168 597.367 749.824 596.871 750.416C596.391 751.008 595.751 751.488 594.951 751.856C594.151 752.208 593.159 752.384 591.975 752.384H589.479V758H585.999V740.336H591.351ZM591.951 749.024C592.479 749.024 592.919 748.936 593.271 748.76C593.623 748.584 593.895 748.36 594.087 748.088C594.295 747.816 594.439 747.536 594.519 747.248C594.615 746.944 594.663 746.664 594.663 746.408C594.663 746.216 594.631 745.976 594.567 745.688C594.519 745.384 594.407 745.08 594.231 744.776C594.055 744.472 593.783 744.216 593.415 744.008C593.063 743.8 592.583 743.696 591.975 743.696H589.479V749.024H591.951ZM595.215 751.184L599.583 758H595.527L591.063 751.28L595.215 751.184ZM606.112 758.288C604.832 758.288 603.744 758.048 602.848 757.568C601.968 757.088 601.296 756.424 600.832 755.576C600.368 754.728 600.136 753.752 600.136 752.648C600.136 751.592 600.408 750.64 600.952 749.792C601.496 748.944 602.224 748.272 603.136 747.776C604.048 747.264 605.064 747.008 606.184 747.008C607.688 747.008 608.92 747.448 609.88 748.328C610.856 749.192 611.488 750.448 611.776 752.096L603.616 754.688L602.872 752.864L608.776 750.872L608.08 751.184C607.952 750.768 607.72 750.408 607.384 750.104C607.064 749.784 606.576 749.624 605.92 749.624C605.424 749.624 604.984 749.744 604.6 749.984C604.232 750.208 603.944 750.536 603.736 750.968C603.544 751.384 603.448 751.88 603.448 752.456C603.448 753.112 603.568 753.664 603.808 754.112C604.048 754.544 604.376 754.872 604.792 755.096C605.208 755.32 605.672 755.432 606.184 755.432C606.552 755.432 606.904 755.368 607.24 755.24C607.592 755.112 607.936 754.944 608.272 754.736L609.76 757.232C609.2 757.552 608.592 757.808 607.936 758C607.296 758.192 606.688 758.288 606.112 758.288ZM618.069 758.216L611.781 747.512H615.765L619.341 754.76L617.277 754.688L620.373 747.512H624.117L618.165 758.216H618.069ZM625.609 747.512H628.969V758H625.609V747.512ZM625.537 743.792C625.537 743.296 625.729 742.888 626.113 742.568C626.513 742.248 626.937 742.088 627.385 742.088C627.833 742.088 628.241 742.248 628.609 742.568C628.993 742.888 629.185 743.296 629.185 743.792C629.185 744.288 628.993 744.696 628.609 745.016C628.241 745.32 627.833 745.472 627.385 745.472C626.937 745.472 626.513 745.32 626.113 745.016C625.729 744.696 625.537 744.288 625.537 743.792ZM637.109 758.288C635.829 758.288 634.741 758.048 633.845 757.568C632.965 757.088 632.293 756.424 631.829 755.576C631.365 754.728 631.133 753.752 631.133 752.648C631.133 751.592 631.405 750.64 631.949 749.792C632.493 748.944 633.221 748.272 634.133 747.776C635.045 747.264 636.061 747.008 637.181 747.008C638.685 747.008 639.917 747.448 640.877 748.328C641.853 749.192 642.485 750.448 642.773 752.096L634.613 754.688L633.869 752.864L639.773 750.872L639.077 751.184C638.949 750.768 638.717 750.408 638.381 750.104C638.061 749.784 637.573 749.624 636.917 749.624C636.421 749.624 635.981 749.744 635.597 749.984C635.229 750.208 634.941 750.536 634.733 750.968C634.541 751.384 634.445 751.88 634.445 752.456C634.445 753.112 634.565 753.664 634.805 754.112C635.045 754.544 635.373 754.872 635.789 755.096C636.205 755.32 636.669 755.432 637.181 755.432C637.549 755.432 637.901 755.368 638.237 755.24C638.589 755.112 638.933 754.944 639.269 754.736L640.757 757.232C640.197 757.552 639.589 757.808 638.933 758C638.293 758.192 637.685 758.288 637.109 758.288ZM651.871 747.512L654.175 752.912L653.551 752.96L655.567 747.512H658.831L654.103 758.624L650.743 751.664L647.671 758.624L642.895 747.512H646.159L648.703 753.344L647.551 753.176L649.567 748.712L649.015 747.512H651.871Z" fill="white"/>
<rect y="176" width="318" height="96" rx="48" fill="#1B1B30"/>
<rect x="24" y="192" width="64" height="64" rx="32" fill="white"/>
<path d="M68.9469 217.72C68.823 217.595 68.6755 217.496 68.513 217.428C68.3505 217.36 68.1763 217.326 68.0002 217.326C67.8242 217.326 67.65 217.36 67.4875 217.428C67.325 217.496 67.1775 217.595 67.0536 217.72L58.6669 226.12L52.9469 220.387C52.823 220.262 52.6755 220.163 52.513 220.095C52.3505 220.027 52.1763 219.992 52.0002 219.992C51.8242 219.992 51.65 220.027 51.4875 220.095C51.325 220.163 51.1775 220.262 51.0536 220.387L43.0536 228.387C42.9286 228.511 42.8294 228.658 42.7617 228.821C42.694 228.983 42.6592 229.157 42.6592 229.333C42.6592 229.509 42.694 229.684 42.7617 229.846C42.8294 230.009 42.9286 230.156 43.0536 230.28C43.1775 230.405 43.325 230.504 43.4875 230.572C43.65 230.64 43.8242 230.674 44.0002 230.674C44.1763 230.674 44.3505 230.64 44.513 230.572C44.6755 230.504 44.823 230.405 44.9469 230.28L52.0002 223.213L57.7202 228.947C57.8442 229.072 57.9917 229.171 58.1541 229.239C58.3166 229.306 58.4909 229.341 58.6669 229.341C58.8429 229.341 59.0172 229.306 59.1797 229.239C59.3422 229.171 59.4896 229.072 59.6136 228.947L68.9469 219.613C69.0719 219.489 69.1711 219.342 69.2388 219.179C69.3065 219.017 69.3413 218.843 69.3413 218.667C69.3413 218.491 69.3065 218.316 69.2388 218.154C69.1711 217.991 69.0719 217.844 68.9469 217.72Z" fill="#F15A24"/>
<path d="M111.464 212.336C113.304 212.336 114.768 212.712 115.856 213.464C116.944 214.2 117.488 215.304 117.488 216.776C117.488 217.864 117.216 218.776 116.672 219.512C116.144 220.232 115.416 220.776 114.488 221.144C113.576 221.496 112.528 221.672 111.344 221.672L110.792 219.8C112.248 219.8 113.536 220 114.656 220.4C115.792 220.8 116.688 221.376 117.344 222.128C118 222.864 118.328 223.752 118.328 224.792C118.328 225.752 118.152 226.568 117.8 227.24C117.464 227.896 117 228.432 116.408 228.848C115.832 229.248 115.176 229.544 114.44 229.736C113.704 229.912 112.944 230 112.16 230H106.28V212.336H111.464ZM111.872 219.56C112.56 219.56 113.064 219.352 113.384 218.936C113.72 218.52 113.888 218.048 113.888 217.52C113.888 216.912 113.68 216.456 113.264 216.152C112.864 215.848 112.32 215.696 111.632 215.696H109.76V219.56H111.872ZM111.992 226.76C112.504 226.76 112.968 226.696 113.384 226.568C113.8 226.424 114.128 226.208 114.368 225.92C114.608 225.616 114.728 225.24 114.728 224.792C114.728 224.28 114.584 223.896 114.296 223.64C114.008 223.368 113.632 223.184 113.168 223.088C112.72 222.976 112.248 222.92 111.752 222.92H109.76V226.76H111.992ZM124.171 230.504C123.227 230.504 122.435 230.216 121.795 229.64C121.155 229.048 120.819 228.288 120.787 227.36V219.512H124.147V226.112C124.179 226.576 124.299 226.952 124.507 227.24C124.715 227.512 125.067 227.648 125.563 227.648C126.059 227.648 126.483 227.48 126.835 227.144C127.203 226.808 127.483 226.352 127.675 225.776C127.883 225.184 127.987 224.52 127.987 223.784V219.512H131.347V230H128.299L128.035 228.08L128.083 228.296C127.843 228.728 127.539 229.112 127.171 229.448C126.803 229.784 126.363 230.04 125.851 230.216C125.355 230.408 124.795 230.504 124.171 230.504ZM137.731 230.216C136.867 230.216 136.059 230.064 135.307 229.76C134.571 229.456 133.947 229.032 133.435 228.488L134.827 226.64C135.339 227.104 135.811 227.44 136.243 227.648C136.691 227.84 137.091 227.936 137.443 227.936C137.715 227.936 137.955 227.912 138.163 227.864C138.387 227.8 138.563 227.712 138.691 227.6C138.819 227.472 138.883 227.312 138.883 227.12C138.883 226.848 138.771 226.632 138.547 226.472C138.339 226.312 138.067 226.184 137.731 226.088C137.395 225.976 137.035 225.864 136.651 225.752C135.691 225.448 134.995 225.008 134.563 224.432C134.147 223.84 133.939 223.2 133.939 222.512C133.939 221.984 134.075 221.456 134.347 220.928C134.635 220.384 135.083 219.936 135.691 219.584C136.315 219.216 137.115 219.032 138.091 219.032C138.971 219.032 139.715 219.12 140.323 219.296C140.931 219.472 141.507 219.76 142.051 220.16L140.779 222.128C140.475 221.888 140.131 221.688 139.747 221.528C139.379 221.352 139.035 221.256 138.715 221.24C138.427 221.224 138.179 221.256 137.971 221.336C137.779 221.416 137.627 221.52 137.515 221.648C137.403 221.776 137.347 221.912 137.347 222.056C137.331 222.36 137.443 222.6 137.683 222.776C137.939 222.952 138.259 223.088 138.643 223.184C139.027 223.28 139.403 223.392 139.771 223.52C140.283 223.68 140.723 223.896 141.091 224.168C141.459 224.44 141.739 224.768 141.931 225.152C142.139 225.52 142.243 225.968 142.243 226.496C142.243 227.136 142.075 227.744 141.739 228.32C141.419 228.88 140.923 229.336 140.251 229.688C139.595 230.04 138.755 230.216 137.731 230.216ZM144.577 219.512H147.937V230H144.577V219.512ZM144.505 215.792C144.505 215.296 144.697 214.888 145.081 214.568C145.481 214.248 145.905 214.088 146.353 214.088C146.801 214.088 147.209 214.248 147.577 214.568C147.961 214.888 148.153 215.296 148.153 215.792C148.153 216.288 147.961 216.696 147.577 217.016C147.209 217.32 146.801 217.472 146.353 217.472C145.905 217.472 145.481 217.32 145.081 217.016C144.697 216.696 144.505 216.288 144.505 215.792ZM153.965 219.512L154.229 221.384L154.181 221.216C154.549 220.56 155.069 220.032 155.741 219.632C156.413 219.216 157.237 219.008 158.213 219.008C159.205 219.008 160.029 219.304 160.685 219.896C161.357 220.472 161.701 221.224 161.717 222.152V230H158.357V223.4C158.341 222.936 158.213 222.568 157.973 222.296C157.749 222.008 157.365 221.864 156.821 221.864C156.309 221.864 155.861 222.032 155.477 222.368C155.093 222.704 154.797 223.16 154.589 223.736C154.381 224.312 154.277 224.976 154.277 225.728V230H150.917V219.512H153.965ZM169.847 230.288C168.567 230.288 167.479 230.048 166.583 229.568C165.703 229.088 165.031 228.424 164.567 227.576C164.103 226.728 163.871 225.752 163.871 224.648C163.871 223.592 164.143 222.64 164.687 221.792C165.231 220.944 165.959 220.272 166.871 219.776C167.783 219.264 168.799 219.008 169.919 219.008C171.423 219.008 172.655 219.448 173.615 220.328C174.591 221.192 175.223 222.448 175.511 224.096L167.351 226.688L166.607 224.864L172.511 222.872L171.815 223.184C171.687 222.768 171.455 222.408 171.119 222.104C170.799 221.784 170.311 221.624 169.655 221.624C169.159 221.624 168.719 221.744 168.335 221.984C167.967 222.208 167.679 222.536 167.471 222.968C167.279 223.384 167.183 223.88 167.183 224.456C167.183 225.112 167.303 225.664 167.543 226.112C167.783 226.544 168.111 226.872 168.527 227.096C168.943 227.32 169.407 227.432 169.919 227.432C170.287 227.432 170.639 227.368 170.975 227.24C171.327 227.112 171.671 226.944 172.007 226.736L173.495 229.232C172.935 229.552 172.327 229.808 171.671 230C171.031 230.192 170.423 230.288 169.847 230.288ZM180.881 230.216C180.017 230.216 179.209 230.064 178.457 229.76C177.721 229.456 177.097 229.032 176.585 228.488L177.977 226.64C178.489 227.104 178.961 227.44 179.393 227.648C179.841 227.84 180.241 227.936 180.593 227.936C180.865 227.936 181.105 227.912 181.313 227.864C181.537 227.8 181.713 227.712 181.841 227.6C181.969 227.472 182.033 227.312 182.033 227.12C182.033 226.848 181.921 226.632 181.697 226.472C181.489 226.312 181.217 226.184 180.881 226.088C180.545 225.976 180.185 225.864 179.801 225.752C178.841 225.448 178.145 225.008 177.713 224.432C177.297 223.84 177.089 223.2 177.089 222.512C177.089 221.984 177.225 221.456 177.497 220.928C177.785 220.384 178.233 219.936 178.841 219.584C179.465 219.216 180.265 219.032 181.241 219.032C182.121 219.032 182.865 219.12 183.473 219.296C184.081 219.472 184.657 219.76 185.201 220.16L183.929 222.128C183.625 221.888 183.281 221.688 182.897 221.528C182.529 221.352 182.185 221.256 181.865 221.24C181.577 221.224 181.329 221.256 181.121 221.336C180.929 221.416 180.777 221.52 180.665 221.648C180.553 221.776 180.497 221.912 180.497 222.056C180.481 222.36 180.593 222.6 180.833 222.776C181.089 222.952 181.409 223.088 181.793 223.184C182.177 223.28 182.553 223.392 182.921 223.52C183.433 223.68 183.873 223.896 184.241 224.168C184.609 224.44 184.889 224.768 185.081 225.152C185.289 225.52 185.393 225.968 185.393 226.496C185.393 227.136 185.225 227.744 184.889 228.32C184.569 228.88 184.073 229.336 183.401 229.688C182.745 230.04 181.905 230.216 180.881 230.216ZM191.135 230.216C190.271 230.216 189.463 230.064 188.711 229.76C187.975 229.456 187.351 229.032 186.839 228.488L188.231 226.64C188.743 227.104 189.215 227.44 189.647 227.648C190.095 227.84 190.495 227.936 190.847 227.936C191.119 227.936 191.359 227.912 191.567 227.864C191.791 227.8 191.967 227.712 192.095 227.6C192.223 227.472 192.287 227.312 192.287 227.12C192.287 226.848 192.175 226.632 191.951 226.472C191.743 226.312 191.471 226.184 191.135 226.088C190.799 225.976 190.439 225.864 190.055 225.752C189.095 225.448 188.399 225.008 187.967 224.432C187.551 223.84 187.343 223.2 187.343 222.512C187.343 221.984 187.479 221.456 187.751 220.928C188.039 220.384 188.487 219.936 189.095 219.584C189.719 219.216 190.519 219.032 191.495 219.032C192.375 219.032 193.119 219.12 193.727 219.296C194.335 219.472 194.911 219.76 195.455 220.16L194.183 222.128C193.879 221.888 193.535 221.688 193.151 221.528C192.783 221.352 192.439 221.256 192.119 221.24C191.831 221.224 191.583 221.256 191.375 221.336C191.183 221.416 191.031 221.52 190.919 221.648C190.807 221.776 190.751 221.912 190.751 222.056C190.735 222.36 190.847 222.6 191.087 222.776C191.343 222.952 191.663 223.088 192.047 223.184C192.431 223.28 192.807 223.392 193.175 223.52C193.687 223.68 194.127 223.896 194.495 224.168C194.863 224.44 195.143 224.768 195.335 225.152C195.543 225.52 195.647 225.968 195.647 226.496C195.647 227.136 195.479 227.744 195.143 228.32C194.823 228.88 194.327 229.336 193.655 229.688C192.999 230.04 192.159 230.216 191.135 230.216ZM203.866 230L211.834 211.64H212.026L219.994 230H215.962L210.874 217.088L213.394 215.36L207.298 230H203.866ZM209.314 223.616H214.618L215.842 226.544H208.234L209.314 223.616ZM224.585 219.512L224.849 221.384L224.801 221.216C225.169 220.56 225.689 220.032 226.361 219.632C227.033 219.216 227.857 219.008 228.833 219.008C229.825 219.008 230.649 219.304 231.305 219.896C231.977 220.472 232.321 221.224 232.337 222.152V230H228.977V223.4C228.961 222.936 228.833 222.568 228.593 222.296C228.369 222.008 227.985 221.864 227.441 221.864C226.929 221.864 226.481 222.032 226.097 222.368C225.713 222.704 225.417 223.16 225.209 223.736C225.001 224.312 224.897 224.976 224.897 225.728V230H221.537V219.512H224.585ZM239.723 230.288C238.747 230.288 237.859 230.096 237.059 229.712C236.275 229.312 235.651 228.704 235.187 227.888C234.723 227.072 234.491 226.032 234.491 224.768C234.491 223.584 234.731 222.56 235.211 221.696C235.691 220.832 236.323 220.168 237.107 219.704C237.891 219.224 238.723 218.984 239.603 218.984C240.643 218.984 241.427 219.16 241.955 219.512C242.499 219.848 242.947 220.224 243.299 220.64L243.155 221.048L243.467 219.512H246.587V230H243.227V227.72L243.491 228.44C243.459 228.44 243.363 228.536 243.203 228.728C243.043 228.904 242.803 229.12 242.483 229.376C242.179 229.616 241.795 229.824 241.331 230C240.883 230.192 240.347 230.288 239.723 230.288ZM240.683 227.552C241.083 227.552 241.443 227.496 241.763 227.384C242.083 227.256 242.363 227.08 242.603 226.856C242.843 226.616 243.051 226.32 243.227 225.968V223.4C243.099 223.048 242.907 222.752 242.651 222.512C242.395 222.256 242.091 222.064 241.739 221.936C241.387 221.792 240.995 221.72 240.563 221.72C240.083 221.72 239.635 221.848 239.219 222.104C238.819 222.344 238.499 222.68 238.259 223.112C238.019 223.544 237.899 224.04 237.899 224.6C237.899 225.16 238.027 225.664 238.283 226.112C238.539 226.56 238.875 226.912 239.291 227.168C239.723 227.424 240.187 227.552 240.683 227.552ZM249.57 211.064H252.93V230H249.57V211.064ZM256.75 235.04L263.734 219.512H266.758L259.99 235.04H256.75ZM259.558 230.048L254.422 219.512H258.19L262.15 228.368L259.558 230.048ZM271.658 230.216C270.794 230.216 269.986 230.064 269.234 229.76C268.498 229.456 267.874 229.032 267.362 228.488L268.754 226.64C269.266 227.104 269.738 227.44 270.17 227.648C270.618 227.84 271.018 227.936 271.37 227.936C271.642 227.936 271.882 227.912 272.09 227.864C272.314 227.8 272.49 227.712 272.618 227.6C272.746 227.472 272.81 227.312 272.81 227.12C272.81 226.848 272.698 226.632 272.474 226.472C272.266 226.312 271.994 226.184 271.658 226.088C271.322 225.976 270.962 225.864 270.578 225.752C269.618 225.448 268.922 225.008 268.49 224.432C268.074 223.84 267.866 223.2 267.866 222.512C267.866 221.984 268.002 221.456 268.274 220.928C268.562 220.384 269.01 219.936 269.618 219.584C270.242 219.216 271.042 219.032 272.018 219.032C272.898 219.032 273.642 219.12 274.25 219.296C274.858 219.472 275.434 219.76 275.978 220.16L274.706 222.128C274.402 221.888 274.058 221.688 273.674 221.528C273.306 221.352 272.962 221.256 272.642 221.24C272.354 221.224 272.106 221.256 271.898 221.336C271.706 221.416 271.554 221.52 271.442 221.648C271.33 221.776 271.274 221.912 271.274 222.056C271.258 222.36 271.37 222.6 271.61 222.776C271.866 222.952 272.186 223.088 272.57 223.184C272.954 223.28 273.33 223.392 273.698 223.52C274.21 223.68 274.65 223.896 275.018 224.168C275.386 224.44 275.666 224.768 275.858 225.152C276.066 225.52 276.17 225.968 276.17 226.496C276.17 227.136 276.002 227.744 275.666 228.32C275.346 228.88 274.85 229.336 274.178 229.688C273.522 230.04 272.682 230.216 271.658 230.216ZM278.505 219.512H281.865V230H278.505V219.512ZM278.433 215.792C278.433 215.296 278.625 214.888 279.009 214.568C279.409 214.248 279.833 214.088 280.281 214.088C280.729 214.088 281.137 214.248 281.505 214.568C281.889 214.888 282.081 215.296 282.081 215.792C282.081 216.288 281.889 216.696 281.505 217.016C281.137 217.32 280.729 217.472 280.281 217.472C279.833 217.472 279.409 217.32 279.009 217.016C278.625 216.696 278.433 216.288 278.433 215.792ZM288.253 230.216C287.389 230.216 286.581 230.064 285.829 229.76C285.093 229.456 284.469 229.032 283.957 228.488L285.349 226.64C285.861 227.104 286.333 227.44 286.765 227.648C287.213 227.84 287.613 227.936 287.965 227.936C288.237 227.936 288.477 227.912 288.685 227.864C288.909 227.8 289.085 227.712 289.213 227.6C289.341 227.472 289.405 227.312 289.405 227.12C289.405 226.848 289.293 226.632 289.069 226.472C288.861 226.312 288.589 226.184 288.253 226.088C287.917 225.976 287.557 225.864 287.173 225.752C286.213 225.448 285.517 225.008 285.085 224.432C284.669 223.84 284.461 223.2 284.461 222.512C284.461 221.984 284.597 221.456 284.869 220.928C285.157 220.384 285.605 219.936 286.213 219.584C286.837 219.216 287.637 219.032 288.613 219.032C289.493 219.032 290.237 219.12 290.845 219.296C291.453 219.472 292.029 219.76 292.573 220.16L291.301 222.128C290.997 221.888 290.653 221.688 290.269 221.528C289.901 221.352 289.557 221.256 289.237 221.24C288.949 221.224 288.701 221.256 288.493 221.336C288.301 221.416 288.149 221.52 288.037 221.648C287.925 221.776 287.869 221.912 287.869 222.056C287.853 222.36 287.965 222.6 288.205 222.776C288.461 222.952 288.781 223.088 289.165 223.184C289.549 223.28 289.925 223.392 290.293 223.52C290.805 223.68 291.245 223.896 291.613 224.168C291.981 224.44 292.261 224.768 292.453 225.152C292.661 225.52 292.765 225.968 292.765 226.496C292.765 227.136 292.597 227.744 292.261 228.32C291.941 228.88 291.445 229.336 290.773 229.688C290.117 230.04 289.277 230.216 288.253 230.216Z" fill="white"/>
<rect x="53" y="528" width="349" height="96" rx="48" fill="#1B1B30"/>
<rect x="77" y="544" width="64" height="64" rx="32" fill="white"/>
<path d="M106.333 576C104.867 576 103.611 575.478 102.567 574.433C101.522 573.389 101 572.133 101 570.667C101 569.2 101.522 567.944 102.567 566.9C103.611 565.856 104.867 565.333 106.333 565.333C107.8 565.333 109.055 565.856 110.1 566.9C111.144 567.944 111.667 569.2 111.667 570.667C111.667 572.133 111.144 573.389 110.1 574.433C109.055 575.478 107.8 576 106.333 576ZM95.6665 586.667V582.933C95.6665 582.2 95.8554 581.511 96.2332 580.867C96.6109 580.222 97.1332 579.733 97.7998 579.4C98.9332 578.822 100.211 578.333 101.633 577.933C103.055 577.533 104.622 577.333 106.333 577.333H106.8C106.933 577.333 107.067 577.356 107.2 577.4C107.022 577.8 106.872 578.217 106.751 578.651C106.629 579.084 106.534 579.534 106.467 580H106.333C104.755 580 103.339 580.2 102.084 580.6C100.829 581 99.8007 581.4 98.9998 581.8C98.7998 581.911 98.6385 582.067 98.5158 582.267C98.3932 582.467 98.3323 582.689 98.3332 582.933V584H106.733C106.867 584.467 107.044 584.928 107.267 585.384C107.489 585.84 107.733 586.268 108 586.667H95.6665ZM114.333 588L113.933 586C113.667 585.889 113.417 585.772 113.184 585.651C112.951 585.529 112.712 585.379 112.467 585.2L110.533 585.8L109.2 583.533L110.733 582.2C110.689 581.889 110.667 581.6 110.667 581.333C110.667 581.067 110.689 580.778 110.733 580.467L109.2 579.133L110.533 576.867L112.467 577.467C112.711 577.289 112.95 577.139 113.184 577.017C113.418 576.896 113.667 576.779 113.933 576.667L114.333 574.667H117L117.4 576.667C117.667 576.778 117.917 576.9 118.151 577.033C118.384 577.167 118.623 577.333 118.867 577.533L120.8 576.867L122.133 579.2L120.6 580.533C120.644 580.8 120.667 581.078 120.667 581.367C120.667 581.656 120.644 581.933 120.6 582.2L122.133 583.533L120.8 585.8L118.867 585.2C118.622 585.378 118.383 585.528 118.151 585.651C117.918 585.773 117.667 585.89 117.4 586L117 588H114.333ZM115.667 584C116.4 584 117.028 583.739 117.551 583.217C118.073 582.696 118.334 582.068 118.333 581.333C118.333 580.6 118.072 579.972 117.551 579.451C117.029 578.929 116.401 578.668 115.667 578.667C114.933 578.667 114.306 578.928 113.784 579.451C113.262 579.973 113.001 580.601 113 581.333C113 582.067 113.261 582.695 113.784 583.217C114.307 583.74 114.934 584.001 115.667 584ZM106.333 573.333C107.067 573.333 107.695 573.072 108.217 572.551C108.74 572.029 109.001 571.401 109 570.667C109 569.933 108.739 569.306 108.217 568.784C107.695 568.262 107.067 568.001 106.333 568C105.6 568 104.972 568.261 104.451 568.784C103.929 569.307 103.667 569.934 103.667 570.667C103.667 571.4 103.928 572.028 104.451 572.551C104.973 573.073 105.601 573.334 106.333 573.333Z" fill="#F15A24"/>
<path d="M168.712 568.608C168.04 568.24 167.352 567.936 166.648 567.696C165.96 567.456 165.312 567.336 164.704 567.336C163.952 567.336 163.36 567.488 162.928 567.792C162.496 568.096 162.28 568.552 162.28 569.16C162.28 569.576 162.44 569.952 162.76 570.288C163.096 570.608 163.52 570.896 164.032 571.152C164.56 571.408 165.104 571.64 165.664 571.848C166.176 572.04 166.68 572.272 167.176 572.544C167.688 572.8 168.144 573.128 168.544 573.528C168.944 573.912 169.264 574.4 169.504 574.992C169.744 575.568 169.864 576.28 169.864 577.128C169.864 578.024 169.632 578.856 169.168 579.624C168.704 580.392 168.024 581.016 167.128 581.496C166.232 581.96 165.128 582.192 163.816 582.192C163.144 582.192 162.456 582.128 161.752 582C161.064 581.856 160.384 581.648 159.712 581.376C159.04 581.088 158.392 580.728 157.768 580.296L159.304 577.584C159.72 577.888 160.168 578.16 160.648 578.4C161.144 578.624 161.64 578.8 162.136 578.928C162.632 579.056 163.088 579.12 163.504 579.12C163.92 579.12 164.336 579.064 164.752 578.952C165.184 578.824 165.536 578.616 165.808 578.328C166.096 578.04 166.24 577.64 166.24 577.128C166.24 576.776 166.12 576.456 165.88 576.168C165.656 575.88 165.344 575.616 164.944 575.376C164.56 575.136 164.136 574.928 163.672 574.752C163.128 574.544 162.568 574.304 161.992 574.032C161.416 573.76 160.872 573.432 160.36 573.048C159.864 572.648 159.456 572.16 159.136 571.584C158.832 570.992 158.68 570.272 158.68 569.424C158.68 568.4 158.904 567.512 159.352 566.76C159.816 566.008 160.464 565.416 161.296 564.984C162.128 564.536 163.088 564.288 164.176 564.24C165.6 564.24 166.752 564.408 167.632 564.744C168.528 565.08 169.328 565.48 170.032 565.944L168.712 568.608ZM181.144 581.064C180.68 581.432 180.096 581.728 179.392 581.952C178.704 582.176 178.024 582.288 177.352 582.288C176.152 582.288 175.104 582.072 174.208 581.64C173.328 581.192 172.64 580.56 172.144 579.744C171.664 578.912 171.424 577.912 171.424 576.744C171.424 575.576 171.688 574.584 172.216 573.768C172.744 572.936 173.432 572.304 174.28 571.872C175.144 571.44 176.048 571.224 176.992 571.224C177.936 571.224 178.752 571.352 179.44 571.608C180.144 571.864 180.744 572.2 181.24 572.616L179.608 574.776C179.384 574.6 179.072 574.424 178.672 574.248C178.288 574.056 177.832 573.96 177.304 573.96C176.84 573.96 176.416 574.08 176.032 574.32C175.648 574.56 175.344 574.888 175.12 575.304C174.896 575.72 174.784 576.2 174.784 576.744C174.784 577.256 174.904 577.728 175.144 578.16C175.384 578.592 175.712 578.936 176.128 579.192C176.56 579.432 177.064 579.552 177.64 579.552C178.008 579.552 178.344 579.504 178.648 579.408C178.968 579.296 179.24 579.144 179.464 578.952L181.144 581.064ZM186.269 571.512L186.581 574.392L186.509 573.96C186.813 573.336 187.229 572.808 187.757 572.376C188.285 571.928 188.805 571.584 189.317 571.344C189.845 571.104 190.245 570.984 190.517 570.984L190.349 574.344C189.565 574.248 188.893 574.376 188.333 574.728C187.773 575.08 187.341 575.544 187.037 576.12C186.733 576.696 186.581 577.288 186.581 577.896V582H183.245V571.512H186.269ZM195.992 582.504C195.048 582.504 194.256 582.216 193.616 581.64C192.976 581.048 192.64 580.288 192.608 579.36V571.512H195.968V578.112C196 578.576 196.12 578.952 196.328 579.24C196.536 579.512 196.888 579.648 197.384 579.648C197.88 579.648 198.304 579.48 198.656 579.144C199.024 578.808 199.304 578.352 199.496 577.776C199.704 577.184 199.808 576.52 199.808 575.784V571.512H203.168V582H200.12L199.856 580.08L199.904 580.296C199.664 580.728 199.36 581.112 198.992 581.448C198.624 581.784 198.184 582.04 197.672 582.216C197.176 582.408 196.616 582.504 195.992 582.504ZM209.192 571.512L209.456 573.36L209.408 573.216C209.824 572.512 210.344 571.968 210.968 571.584C211.592 571.184 212.344 570.984 213.224 570.984C213.8 570.984 214.304 571.064 214.736 571.224C215.184 571.384 215.56 571.624 215.864 571.944C216.168 572.248 216.376 572.648 216.488 573.144L216.368 573.168C216.816 572.512 217.352 571.984 217.976 571.584C218.616 571.184 219.28 570.984 219.968 570.984C221.008 570.984 221.832 571.28 222.44 571.872C223.064 572.448 223.384 573.2 223.4 574.128V582H220.064V575.52C220.048 575.056 219.976 574.68 219.848 574.392C219.72 574.088 219.424 573.92 218.96 573.888C218.416 573.888 217.952 574.08 217.568 574.464C217.2 574.832 216.92 575.312 216.728 575.904C216.552 576.48 216.464 577.08 216.464 577.704V582H213.104V575.52C213.088 575.056 213 574.68 212.84 574.392C212.696 574.088 212.392 573.92 211.928 573.888C211.4 573.888 210.952 574.08 210.584 574.464C210.232 574.832 209.96 575.304 209.768 575.88C209.592 576.456 209.504 577.048 209.504 577.656V582H206.144V571.512H209.192ZM234.259 582V564.336H239.539C241.315 564.336 242.827 564.6 244.075 565.128C245.323 565.656 246.323 566.36 247.075 567.24C247.843 568.12 248.403 569.104 248.755 570.192C249.107 571.28 249.283 572.376 249.283 573.48C249.283 574.792 249.043 575.976 248.563 577.032C248.099 578.072 247.459 578.968 246.643 579.72C245.827 580.456 244.883 581.024 243.811 581.424C242.739 581.808 241.603 582 240.403 582H234.259ZM237.739 578.64H239.803C240.683 578.64 241.483 578.528 242.203 578.304C242.923 578.064 243.539 577.72 244.051 577.272C244.579 576.824 244.979 576.264 245.251 575.592C245.539 574.904 245.683 574.12 245.683 573.24C245.683 572.088 245.491 571.152 245.107 570.432C244.739 569.696 244.275 569.128 243.715 568.728C243.171 568.328 242.611 568.056 242.035 567.912C241.459 567.752 240.971 567.672 240.571 567.672H237.739V578.64ZM256.903 582.288C255.623 582.288 254.535 582.048 253.639 581.568C252.759 581.088 252.087 580.424 251.623 579.576C251.159 578.728 250.927 577.752 250.927 576.648C250.927 575.592 251.199 574.64 251.743 573.792C252.287 572.944 253.015 572.272 253.927 571.776C254.839 571.264 255.855 571.008 256.975 571.008C258.479 571.008 259.711 571.448 260.671 572.328C261.647 573.192 262.279 574.448 262.567 576.096L254.407 578.688L253.663 576.864L259.567 574.872L258.871 575.184C258.743 574.768 258.511 574.408 258.175 574.104C257.855 573.784 257.367 573.624 256.711 573.624C256.215 573.624 255.775 573.744 255.391 573.984C255.023 574.208 254.735 574.536 254.527 574.968C254.335 575.384 254.239 575.88 254.239 576.456C254.239 577.112 254.359 577.664 254.599 578.112C254.839 578.544 255.167 578.872 255.583 579.096C255.999 579.32 256.463 579.432 256.975 579.432C257.343 579.432 257.695 579.368 258.031 579.24C258.383 579.112 258.727 578.944 259.063 578.736L260.551 581.232C259.991 581.552 259.383 581.808 258.727 582C258.087 582.192 257.479 582.288 256.903 582.288ZM268.86 582.216L262.572 571.512H266.556L270.132 578.76L268.068 578.688L271.164 571.512H274.908L268.956 582.216H268.86ZM281.209 582.288C279.929 582.288 278.841 582.048 277.945 581.568C277.065 581.088 276.393 580.424 275.929 579.576C275.465 578.728 275.233 577.752 275.233 576.648C275.233 575.592 275.505 574.64 276.049 573.792C276.593 572.944 277.321 572.272 278.233 571.776C279.145 571.264 280.161 571.008 281.281 571.008C282.785 571.008 284.017 571.448 284.977 572.328C285.953 573.192 286.585 574.448 286.873 576.096L278.713 578.688L277.969 576.864L283.873 574.872L283.177 575.184C283.049 574.768 282.817 574.408 282.481 574.104C282.161 573.784 281.673 573.624 281.017 573.624C280.521 573.624 280.081 573.744 279.697 573.984C279.329 574.208 279.041 574.536 278.833 574.968C278.641 575.384 278.545 575.88 278.545 576.456C278.545 577.112 278.665 577.664 278.905 578.112C279.145 578.544 279.473 578.872 279.889 579.096C280.305 579.32 280.769 579.432 281.281 579.432C281.649 579.432 282.001 579.368 282.337 579.24C282.689 579.112 283.033 578.944 283.369 578.736L284.857 581.232C284.297 581.552 283.689 581.808 283.033 582C282.393 582.192 281.785 582.288 281.209 582.288ZM288.834 563.064H292.194V582H288.834V563.064ZM294.359 576.624C294.359 575.552 294.607 574.592 295.103 573.744C295.615 572.896 296.327 572.232 297.239 571.752C298.151 571.256 299.199 571.008 300.383 571.008C301.583 571.008 302.623 571.256 303.503 571.752C304.383 572.232 305.055 572.896 305.519 573.744C305.999 574.592 306.239 575.552 306.239 576.624C306.239 577.696 305.999 578.664 305.519 579.528C305.055 580.376 304.383 581.048 303.503 581.544C302.623 582.04 301.567 582.288 300.335 582.288C299.183 582.288 298.151 582.064 297.239 581.616C296.343 581.168 295.639 580.52 295.127 579.672C294.615 578.824 294.359 577.808 294.359 576.624ZM297.743 576.648C297.743 577.192 297.855 577.688 298.079 578.136C298.303 578.568 298.607 578.912 298.991 579.168C299.375 579.424 299.807 579.552 300.287 579.552C300.815 579.552 301.271 579.424 301.655 579.168C302.039 578.912 302.335 578.568 302.543 578.136C302.751 577.688 302.855 577.192 302.855 576.648C302.855 576.088 302.751 575.592 302.543 575.16C302.335 574.728 302.039 574.384 301.655 574.128C301.271 573.872 300.815 573.744 300.287 573.744C299.807 573.744 299.375 573.872 298.991 574.128C298.607 574.384 298.303 574.728 298.079 575.16C297.855 575.592 297.743 576.088 297.743 576.648ZM314.982 582.288C314.358 582.288 313.742 582.176 313.134 581.952C312.542 581.712 312.046 581.376 311.646 580.944L311.742 579.96V587.04H308.406V571.272H311.286L311.766 573.312L311.502 572.592C312.046 572.128 312.654 571.744 313.326 571.44C313.998 571.136 314.774 570.984 315.654 570.984C316.63 570.984 317.502 571.216 318.27 571.68C319.038 572.128 319.638 572.784 320.07 573.648C320.518 574.496 320.742 575.52 320.742 576.72C320.742 577.904 320.494 578.912 319.998 579.744C319.502 580.576 318.822 581.208 317.958 581.64C317.094 582.072 316.102 582.288 314.982 582.288ZM314.31 579.648C314.854 579.648 315.35 579.528 315.798 579.288C316.262 579.048 316.63 578.712 316.902 578.28C317.19 577.832 317.334 577.328 317.334 576.768C317.334 576.176 317.206 575.664 316.95 575.232C316.71 574.784 316.374 574.44 315.942 574.2C315.526 573.944 315.062 573.816 314.55 573.816C314.102 573.816 313.702 573.88 313.35 574.008C313.014 574.12 312.71 574.296 312.438 574.536C312.182 574.76 311.958 575.048 311.766 575.4V577.968C311.894 578.304 312.078 578.6 312.318 578.856C312.558 579.112 312.846 579.312 313.182 579.456C313.534 579.584 313.91 579.648 314.31 579.648ZM325.95 571.512L326.214 573.36L326.166 573.216C326.582 572.512 327.102 571.968 327.726 571.584C328.35 571.184 329.102 570.984 329.982 570.984C330.558 570.984 331.062 571.064 331.494 571.224C331.942 571.384 332.318 571.624 332.622 571.944C332.926 572.248 333.134 572.648 333.246 573.144L333.126 573.168C333.574 572.512 334.11 571.984 334.734 571.584C335.374 571.184 336.038 570.984 336.726 570.984C337.766 570.984 338.59 571.28 339.198 571.872C339.822 572.448 340.142 573.2 340.158 574.128V582H336.822V575.52C336.806 575.056 336.734 574.68 336.606 574.392C336.478 574.088 336.182 573.92 335.718 573.888C335.174 573.888 334.71 574.08 334.326 574.464C333.958 574.832 333.678 575.312 333.486 575.904C333.31 576.48 333.222 577.08 333.222 577.704V582H329.862V575.52C329.846 575.056 329.758 574.68 329.598 574.392C329.454 574.088 329.15 573.92 328.686 573.888C328.158 573.888 327.71 574.08 327.342 574.464C326.99 574.832 326.718 575.304 326.526 575.88C326.35 576.456 326.262 577.048 326.262 577.656V582H322.902V571.512H325.95ZM348.301 582.288C347.021 582.288 345.933 582.048 345.037 581.568C344.157 581.088 343.485 580.424 343.021 579.576C342.557 578.728 342.325 577.752 342.325 576.648C342.325 575.592 342.597 574.64 343.141 573.792C343.685 572.944 344.413 572.272 345.325 571.776C346.237 571.264 347.253 571.008 348.373 571.008C349.877 571.008 351.109 571.448 352.069 572.328C353.045 573.192 353.677 574.448 353.965 576.096L345.805 578.688L345.061 576.864L350.965 574.872L350.269 575.184C350.141 574.768 349.909 574.408 349.573 574.104C349.253 573.784 348.765 573.624 348.109 573.624C347.613 573.624 347.173 573.744 346.789 573.984C346.421 574.208 346.133 574.536 345.925 574.968C345.733 575.384 345.637 575.88 345.637 576.456C345.637 577.112 345.757 577.664 345.997 578.112C346.237 578.544 346.565 578.872 346.981 579.096C347.397 579.32 347.861 579.432 348.373 579.432C348.741 579.432 349.093 579.368 349.429 579.24C349.781 579.112 350.125 578.944 350.461 578.736L351.949 581.232C351.389 581.552 350.781 581.808 350.125 582C349.485 582.192 348.877 582.288 348.301 582.288ZM358.974 571.512L359.238 573.384L359.19 573.216C359.558 572.56 360.078 572.032 360.75 571.632C361.422 571.216 362.246 571.008 363.222 571.008C364.214 571.008 365.038 571.304 365.694 571.896C366.366 572.472 366.71 573.224 366.726 574.152V582H363.366V575.4C363.35 574.936 363.222 574.568 362.982 574.296C362.758 574.008 362.374 573.864 361.83 573.864C361.318 573.864 360.87 574.032 360.486 574.368C360.102 574.704 359.806 575.16 359.598 575.736C359.39 576.312 359.286 576.976 359.286 577.728V582H355.926V571.512H358.974ZM370.68 566.904H374.04V571.464H376.584V574.08H374.04V582H370.68V574.08H369.048V571.464H370.68V566.904Z" fill="white"/>
<rect x="247" width="436" height="96" rx="48" fill="#1B1B30"/>
<rect x="271" y="16" width="64" height="64" rx="32" fill="white"/>
<path d="M303 48C301.533 48 300.278 47.4778 299.233 46.4333C298.189 45.3889 297.667 44.1333 297.667 42.6667C297.667 41.2 298.189 39.9445 299.233 38.9C300.278 37.8556 301.533 37.3333 303 37.3333C304.467 37.3333 305.722 37.8556 306.767 38.9C307.811 39.9445 308.333 41.2 308.333 42.6667C308.333 44.1333 307.811 45.3889 306.767 46.4333C305.722 47.4778 304.467 48 303 48ZM292.333 58.6667V54.9333C292.333 54.1778 292.528 53.4836 292.917 52.8507C293.307 52.2178 293.823 51.7342 294.467 51.4C295.845 50.7111 297.245 50.1947 298.667 49.8507C300.089 49.5067 301.533 49.3342 303 49.3333C304.467 49.3333 305.911 49.5058 307.333 49.8507C308.756 50.1956 310.156 50.712 311.533 51.4C312.178 51.7333 312.695 52.2169 313.084 52.8507C313.473 53.4845 313.668 54.1787 313.667 54.9333V58.6667H292.333ZM295 56H311V54.9333C311 54.6889 310.939 54.4667 310.817 54.2667C310.696 54.0667 310.534 53.9111 310.333 53.8C309.133 53.2 307.922 52.7502 306.7 52.4507C305.478 52.1511 304.245 52.0009 303 52C301.756 52 300.522 52.1502 299.3 52.4507C298.078 52.7511 296.867 53.2009 295.667 53.8C295.467 53.9111 295.305 54.0667 295.183 54.2667C295.06 54.4667 294.999 54.6889 295 54.9333V56ZM303 45.3333C303.733 45.3333 304.361 45.0725 304.884 44.5507C305.407 44.0289 305.668 43.4009 305.667 42.6667C305.667 41.9333 305.406 41.3058 304.884 40.784C304.362 40.2622 303.734 40.0009 303 40C302.267 40 301.639 40.2613 301.117 40.784C300.596 41.3067 300.334 41.9342 300.333 42.6667C300.333 43.4 300.595 44.028 301.117 44.5507C301.64 45.0733 302.268 45.3342 303 45.3333Z" fill="#F15A24"/>
<path d="M353.28 54V35.616H353.304L363.12 49.536L361.632 49.2L371.424 35.616H371.472V54H367.992V43.464L368.208 45.264L362.232 53.76H362.184L356.04 45.264L356.64 43.608V54H353.28ZM380.166 54.288C378.886 54.288 377.798 54.048 376.902 53.568C376.022 53.088 375.35 52.424 374.886 51.576C374.422 50.728 374.19 49.752 374.19 48.648C374.19 47.592 374.462 46.64 375.006 45.792C375.55 44.944 376.278 44.272 377.19 43.776C378.102 43.264 379.118 43.008 380.238 43.008C381.742 43.008 382.974 43.448 383.934 44.328C384.91 45.192 385.542 46.448 385.83 48.096L377.67 50.688L376.926 48.864L382.83 46.872L382.134 47.184C382.006 46.768 381.774 46.408 381.438 46.104C381.118 45.784 380.63 45.624 379.974 45.624C379.478 45.624 379.038 45.744 378.654 45.984C378.286 46.208 377.998 46.536 377.79 46.968C377.598 47.384 377.502 47.88 377.502 48.456C377.502 49.112 377.622 49.664 377.862 50.112C378.102 50.544 378.43 50.872 378.846 51.096C379.262 51.32 379.726 51.432 380.238 51.432C380.606 51.432 380.958 51.368 381.294 51.24C381.646 51.112 381.99 50.944 382.326 50.736L383.814 53.232C383.254 53.552 382.646 53.808 381.99 54C381.35 54.192 380.742 54.288 380.166 54.288ZM390.839 43.512L391.103 45.384L391.055 45.216C391.423 44.56 391.943 44.032 392.615 43.632C393.287 43.216 394.111 43.008 395.087 43.008C396.079 43.008 396.903 43.304 397.559 43.896C398.231 44.472 398.575 45.224 398.591 46.152V54H395.231V47.4C395.215 46.936 395.087 46.568 394.847 46.296C394.623 46.008 394.239 45.864 393.695 45.864C393.183 45.864 392.735 46.032 392.351 46.368C391.967 46.704 391.671 47.16 391.463 47.736C391.255 48.312 391.151 48.976 391.151 49.728V54H387.791V43.512H390.839ZM402.545 38.904H405.905V43.464H408.449V46.08H405.905V54H402.545V46.08H400.913V43.464H402.545V38.904ZM409.711 48.624C409.711 47.552 409.959 46.592 410.455 45.744C410.967 44.896 411.679 44.232 412.591 43.752C413.503 43.256 414.551 43.008 415.735 43.008C416.935 43.008 417.975 43.256 418.855 43.752C419.735 44.232 420.407 44.896 420.871 45.744C421.351 46.592 421.591 47.552 421.591 48.624C421.591 49.696 421.351 50.664 420.871 51.528C420.407 52.376 419.735 53.048 418.855 53.544C417.975 54.04 416.919 54.288 415.687 54.288C414.535 54.288 413.503 54.064 412.591 53.616C411.695 53.168 410.991 52.52 410.479 51.672C409.967 50.824 409.711 49.808 409.711 48.624ZM413.095 48.648C413.095 49.192 413.207 49.688 413.431 50.136C413.655 50.568 413.959 50.912 414.343 51.168C414.727 51.424 415.159 51.552 415.639 51.552C416.167 51.552 416.623 51.424 417.007 51.168C417.391 50.912 417.687 50.568 417.895 50.136C418.103 49.688 418.207 49.192 418.207 48.648C418.207 48.088 418.103 47.592 417.895 47.16C417.687 46.728 417.391 46.384 417.007 46.128C416.623 45.872 416.167 45.744 415.639 45.744C415.159 45.744 414.727 45.872 414.343 46.128C413.959 46.384 413.655 46.728 413.431 47.16C413.207 47.592 413.095 48.088 413.095 48.648ZM426.782 43.512L427.094 46.392L427.022 45.96C427.326 45.336 427.742 44.808 428.27 44.376C428.798 43.928 429.318 43.584 429.83 43.344C430.358 43.104 430.758 42.984 431.03 42.984L430.862 46.344C430.078 46.248 429.406 46.376 428.846 46.728C428.286 47.08 427.854 47.544 427.55 48.12C427.246 48.696 427.094 49.288 427.094 49.896V54H423.758V43.512H426.782ZM436.529 54.216C435.665 54.216 434.857 54.064 434.105 53.76C433.369 53.456 432.745 53.032 432.233 52.488L433.625 50.64C434.137 51.104 434.609 51.44 435.041 51.648C435.489 51.84 435.889 51.936 436.241 51.936C436.513 51.936 436.753 51.912 436.961 51.864C437.185 51.8 437.361 51.712 437.489 51.6C437.617 51.472 437.681 51.312 437.681 51.12C437.681 50.848 437.569 50.632 437.345 50.472C437.137 50.312 436.865 50.184 436.529 50.088C436.193 49.976 435.833 49.864 435.449 49.752C434.489 49.448 433.793 49.008 433.361 48.432C432.945 47.84 432.737 47.2 432.737 46.512C432.737 45.984 432.873 45.456 433.145 44.928C433.433 44.384 433.881 43.936 434.489 43.584C435.113 43.216 435.913 43.032 436.889 43.032C437.769 43.032 438.513 43.12 439.121 43.296C439.729 43.472 440.305 43.76 440.849 44.16L439.577 46.128C439.273 45.888 438.929 45.688 438.545 45.528C438.177 45.352 437.833 45.256 437.513 45.24C437.225 45.224 436.977 45.256 436.769 45.336C436.577 45.416 436.425 45.52 436.313 45.648C436.201 45.776 436.145 45.912 436.145 46.056C436.129 46.36 436.241 46.6 436.481 46.776C436.737 46.952 437.057 47.088 437.441 47.184C437.825 47.28 438.201 47.392 438.569 47.52C439.081 47.68 439.521 47.896 439.889 48.168C440.257 48.44 440.537 48.768 440.729 49.152C440.937 49.52 441.041 49.968 441.041 50.496C441.041 51.136 440.873 51.744 440.537 52.32C440.217 52.88 439.721 53.336 439.049 53.688C438.393 54.04 437.553 54.216 436.529 54.216ZM443.376 54V35.064H446.664V45.624L446.64 45.216C447.008 44.56 447.528 44.032 448.2 43.632C448.872 43.216 449.696 43.008 450.672 43.008C451.664 43.008 452.488 43.304 453.144 43.896C453.816 44.472 454.16 45.224 454.176 46.152V54H450.816V47.4C450.8 46.936 450.672 46.568 450.432 46.296C450.208 46.008 449.824 45.864 449.28 45.864C448.768 45.864 448.32 46.032 447.936 46.368C447.552 46.704 447.256 47.16 447.048 47.736C446.84 48.312 446.736 48.976 446.736 49.728V54H443.376ZM457.146 43.512H460.506V54H457.146V43.512ZM457.074 39.792C457.074 39.296 457.266 38.888 457.65 38.568C458.05 38.248 458.474 38.088 458.922 38.088C459.37 38.088 459.778 38.248 460.146 38.568C460.53 38.888 460.722 39.296 460.722 39.792C460.722 40.288 460.53 40.696 460.146 41.016C459.778 41.32 459.37 41.472 458.922 41.472C458.474 41.472 458.05 41.32 457.65 41.016C457.266 40.696 457.074 40.288 457.074 39.792ZM470.062 54.288C469.438 54.288 468.822 54.176 468.214 53.952C467.622 53.712 467.126 53.376 466.726 52.944L466.822 51.96V59.04H463.486V43.272H466.366L466.846 45.312L466.582 44.592C467.126 44.128 467.734 43.744 468.406 43.44C469.078 43.136 469.854 42.984 470.734 42.984C471.71 42.984 472.582 43.216 473.35 43.68C474.118 44.128 474.718 44.784 475.15 45.648C475.598 46.496 475.822 47.52 475.822 48.72C475.822 49.904 475.574 50.912 475.078 51.744C474.582 52.576 473.902 53.208 473.038 53.64C472.174 54.072 471.182 54.288 470.062 54.288ZM469.39 51.648C469.934 51.648 470.43 51.528 470.878 51.288C471.342 51.048 471.71 50.712 471.982 50.28C472.27 49.832 472.414 49.328 472.414 48.768C472.414 48.176 472.286 47.664 472.03 47.232C471.79 46.784 471.454 46.44 471.022 46.2C470.606 45.944 470.142 45.816 469.63 45.816C469.182 45.816 468.782 45.88 468.43 46.008C468.094 46.12 467.79 46.296 467.518 46.536C467.262 46.76 467.038 47.048 466.846 47.4V49.968C466.974 50.304 467.158 50.6 467.398 50.856C467.638 51.112 467.926 51.312 468.262 51.456C468.614 51.584 468.99 51.648 469.39 51.648ZM500.739 54C500.515 54 500.179 54 499.731 54C499.299 54 498.851 54 498.387 54C497.923 54 497.523 54 497.187 54C496.867 54 496.707 54 496.707 54L488.931 43.536C488.771 43.312 488.571 43.008 488.331 42.624C488.091 42.224 487.883 41.784 487.707 41.304C487.531 40.808 487.443 40.312 487.443 39.816C487.443 39.176 487.603 38.544 487.923 37.92C488.259 37.28 488.763 36.752 489.435 36.336C490.123 35.904 490.987 35.688 492.027 35.688C493.163 35.688 494.163 35.92 495.027 36.384C495.891 36.848 496.579 37.408 497.091 38.064L495.339 40.392C494.843 39.848 494.363 39.416 493.899 39.096C493.451 38.776 493.011 38.616 492.579 38.616C492.035 38.616 491.643 38.776 491.403 39.096C491.163 39.416 491.043 39.768 491.043 40.152C491.043 40.376 491.099 40.624 491.211 40.896C491.339 41.152 491.467 41.392 491.595 41.616C491.723 41.824 491.811 41.968 491.859 42.048L500.739 54ZM491.019 45.96C490.635 45.96 490.275 46.04 489.939 46.2C489.603 46.344 489.307 46.544 489.051 46.8C488.795 47.056 488.595 47.344 488.451 47.664C488.323 47.984 488.259 48.32 488.259 48.672C488.259 49.168 488.379 49.608 488.619 49.992C488.875 50.36 489.219 50.648 489.651 50.856C490.083 51.064 490.555 51.168 491.067 51.168C491.595 51.168 492.027 51.096 492.363 50.952C492.715 50.792 493.003 50.584 493.227 50.328C493.467 50.072 493.659 49.792 493.803 49.488L496.035 51.336C495.603 52.152 494.939 52.848 494.043 53.424C493.163 54 492.011 54.288 490.587 54.288C489.483 54.288 488.483 54.056 487.587 53.592C486.691 53.128 485.979 52.488 485.451 51.672C484.923 50.856 484.659 49.92 484.659 48.864C484.659 48.064 484.835 47.328 485.187 46.656C485.555 45.984 486.043 45.4 486.651 44.904C487.259 44.408 487.939 44.016 488.691 43.728C489.443 43.424 490.211 43.264 490.995 43.248L491.019 45.96ZM496.251 43.248H499.419L496.443 50.736L493.923 49.248L496.251 43.248ZM523.718 52.536C523.526 52.696 523.166 52.912 522.638 53.184C522.126 53.456 521.494 53.696 520.742 53.904C519.99 54.112 519.158 54.208 518.246 54.192C516.854 54.16 515.606 53.912 514.502 53.448C513.414 52.968 512.486 52.32 511.718 51.504C510.966 50.688 510.39 49.752 509.99 48.696C509.59 47.64 509.39 46.512 509.39 45.312C509.39 43.968 509.59 42.736 509.99 41.616C510.406 40.496 510.99 39.528 511.742 38.712C512.51 37.896 513.422 37.264 514.478 36.816C515.534 36.368 516.702 36.144 517.982 36.144C519.166 36.144 520.214 36.304 521.126 36.624C522.038 36.944 522.782 37.288 523.358 37.656L521.99 40.944C521.59 40.64 521.054 40.328 520.382 40.008C519.726 39.672 518.966 39.504 518.102 39.504C517.43 39.504 516.782 39.648 516.158 39.936C515.55 40.208 515.006 40.6 514.526 41.112C514.062 41.624 513.694 42.224 513.422 42.912C513.15 43.584 513.014 44.32 513.014 45.12C513.014 45.968 513.134 46.744 513.374 47.448C513.63 48.152 513.99 48.76 514.454 49.272C514.918 49.768 515.47 50.152 516.11 50.424C516.766 50.696 517.502 50.832 518.318 50.832C519.262 50.832 520.07 50.68 520.742 50.376C521.414 50.072 521.926 49.752 522.278 49.416L523.718 52.536ZM525.356 48.624C525.356 47.552 525.604 46.592 526.1 45.744C526.612 44.896 527.324 44.232 528.236 43.752C529.148 43.256 530.196 43.008 531.38 43.008C532.58 43.008 533.62 43.256 534.5 43.752C535.38 44.232 536.052 44.896 536.516 45.744C536.996 46.592 537.236 47.552 537.236 48.624C537.236 49.696 536.996 50.664 536.516 51.528C536.052 52.376 535.38 53.048 534.5 53.544C533.62 54.04 532.564 54.288 531.332 54.288C530.18 54.288 529.148 54.064 528.236 53.616C527.34 53.168 526.636 52.52 526.124 51.672C525.612 50.824 525.356 49.808 525.356 48.624ZM528.74 48.648C528.74 49.192 528.852 49.688 529.076 50.136C529.3 50.568 529.604 50.912 529.988 51.168C530.372 51.424 530.804 51.552 531.284 51.552C531.812 51.552 532.268 51.424 532.652 51.168C533.036 50.912 533.332 50.568 533.54 50.136C533.748 49.688 533.852 49.192 533.852 48.648C533.852 48.088 533.748 47.592 533.54 47.16C533.332 46.728 533.036 46.384 532.652 46.128C532.268 45.872 531.812 45.744 531.284 45.744C530.804 45.744 530.372 45.872 529.988 46.128C529.604 46.384 529.3 46.728 529.076 47.16C528.852 47.592 528.74 48.088 528.74 48.648ZM539.403 35.064H542.763V54H539.403V35.064ZM545.743 35.064H549.103V54H545.743V35.064ZM556.5 54.288C555.524 54.288 554.636 54.096 553.836 53.712C553.052 53.312 552.428 52.704 551.964 51.888C551.5 51.072 551.268 50.032 551.268 48.768C551.268 47.584 551.508 46.56 551.988 45.696C552.468 44.832 553.1 44.168 553.884 43.704C554.668 43.224 555.5 42.984 556.38 42.984C557.42 42.984 558.204 43.16 558.732 43.512C559.276 43.848 559.724 44.224 560.076 44.64L559.932 45.048L560.244 43.512H563.364V54H560.004V51.72L560.268 52.44C560.236 52.44 560.14 52.536 559.98 52.728C559.82 52.904 559.58 53.12 559.26 53.376C558.956 53.616 558.572 53.824 558.108 54C557.66 54.192 557.124 54.288 556.5 54.288ZM557.46 51.552C557.86 51.552 558.22 51.496 558.54 51.384C558.86 51.256 559.14 51.08 559.38 50.856C559.62 50.616 559.828 50.32 560.004 49.968V47.4C559.876 47.048 559.684 46.752 559.428 46.512C559.172 46.256 558.868 46.064 558.516 45.936C558.164 45.792 557.772 45.72 557.34 45.72C556.86 45.72 556.412 45.848 555.996 46.104C555.596 46.344 555.276 46.68 555.036 47.112C554.796 47.544 554.676 48.04 554.676 48.6C554.676 49.16 554.804 49.664 555.06 50.112C555.316 50.56 555.652 50.912 556.068 51.168C556.5 51.424 556.964 51.552 557.46 51.552ZM573.234 54.288C572.354 54.288 571.61 54.144 571.002 53.856C570.41 53.552 569.89 53.16 569.442 52.68L569.706 51.96V54H566.346V35.064H569.682V45.312V44.232C570.098 43.88 570.65 43.584 571.338 43.344C572.026 43.104 572.81 42.984 573.69 42.984C574.602 42.984 575.434 43.2 576.186 43.632C576.938 44.064 577.538 44.696 577.986 45.528C578.45 46.344 578.682 47.344 578.682 48.528C578.682 49.712 578.426 50.736 577.914 51.6C577.418 52.464 576.754 53.128 575.922 53.592C575.09 54.056 574.194 54.288 573.234 54.288ZM572.49 51.456C572.986 51.456 573.442 51.328 573.858 51.072C574.29 50.816 574.634 50.464 574.89 50.016C575.146 49.568 575.274 49.064 575.274 48.504C575.274 47.944 575.146 47.448 574.89 47.016C574.634 46.584 574.29 46.248 573.858 46.008C573.442 45.752 572.986 45.624 572.49 45.624C572.058 45.624 571.65 45.696 571.266 45.84C570.898 45.968 570.578 46.16 570.306 46.416C570.05 46.656 569.85 46.952 569.706 47.304V49.872C569.898 50.224 570.122 50.52 570.378 50.76C570.65 50.984 570.962 51.16 571.314 51.288C571.666 51.4 572.058 51.456 572.49 51.456ZM580.026 48.624C580.026 47.552 580.274 46.592 580.77 45.744C581.282 44.896 581.994 44.232 582.906 43.752C583.818 43.256 584.866 43.008 586.05 43.008C587.25 43.008 588.29 43.256 589.17 43.752C590.05 44.232 590.722 44.896 591.186 45.744C591.666 46.592 591.906 47.552 591.906 48.624C591.906 49.696 591.666 50.664 591.186 51.528C590.722 52.376 590.05 53.048 589.17 53.544C588.29 54.04 587.234 54.288 586.002 54.288C584.85 54.288 583.818 54.064 582.906 53.616C582.01 53.168 581.306 52.52 580.794 51.672C580.282 50.824 580.026 49.808 580.026 48.624ZM583.41 48.648C583.41 49.192 583.522 49.688 583.746 50.136C583.97 50.568 584.274 50.912 584.658 51.168C585.042 51.424 585.474 51.552 585.954 51.552C586.482 51.552 586.938 51.424 587.322 51.168C587.706 50.912 588.002 50.568 588.21 50.136C588.418 49.688 588.522 49.192 588.522 48.648C588.522 48.088 588.418 47.592 588.21 47.16C588.002 46.728 587.706 46.384 587.322 46.128C586.938 45.872 586.482 45.744 585.954 45.744C585.474 45.744 585.042 45.872 584.658 46.128C584.274 46.384 583.97 46.728 583.746 47.16C583.522 47.592 583.41 48.088 583.41 48.648ZM597.097 43.512L597.409 46.392L597.337 45.96C597.641 45.336 598.057 44.808 598.585 44.376C599.113 43.928 599.633 43.584 600.145 43.344C600.673 43.104 601.073 42.984 601.345 42.984L601.177 46.344C600.393 46.248 599.721 46.376 599.161 46.728C598.601 47.08 598.169 47.544 597.865 48.12C597.561 48.696 597.409 49.288 597.409 49.896V54H594.073V43.512H597.097ZM607.501 54.288C606.525 54.288 605.637 54.096 604.837 53.712C604.053 53.312 603.429 52.704 602.965 51.888C602.501 51.072 602.269 50.032 602.269 48.768C602.269 47.584 602.509 46.56 602.989 45.696C603.469 44.832 604.101 44.168 604.885 43.704C605.669 43.224 606.501 42.984 607.381 42.984C608.421 42.984 609.205 43.16 609.733 43.512C610.277 43.848 610.725 44.224 611.077 44.64L610.933 45.048L611.245 43.512H614.365V54H611.005V51.72L611.269 52.44C611.237 52.44 611.141 52.536 610.981 52.728C610.821 52.904 610.581 53.12 610.261 53.376C609.957 53.616 609.573 53.824 609.109 54C608.661 54.192 608.125 54.288 607.501 54.288ZM608.461 51.552C608.861 51.552 609.221 51.496 609.541 51.384C609.861 51.256 610.141 51.08 610.381 50.856C610.621 50.616 610.829 50.32 611.005 49.968V47.4C610.877 47.048 610.685 46.752 610.429 46.512C610.173 46.256 609.869 46.064 609.517 45.936C609.165 45.792 608.773 45.72 608.341 45.72C607.861 45.72 607.413 45.848 606.997 46.104C606.597 46.344 606.277 46.68 606.037 47.112C605.797 47.544 605.677 48.04 605.677 48.6C605.677 49.16 605.805 49.664 606.061 50.112C606.317 50.56 606.653 50.912 607.069 51.168C607.501 51.424 607.965 51.552 608.461 51.552ZM618.332 38.904H621.692V43.464H624.236V46.08H621.692V54H618.332V46.08H616.7V43.464H618.332V38.904ZM626.313 43.512H629.673V54H626.313V43.512ZM626.241 39.792C626.241 39.296 626.433 38.888 626.817 38.568C627.217 38.248 627.641 38.088 628.089 38.088C628.537 38.088 628.945 38.248 629.313 38.568C629.697 38.888 629.889 39.296 629.889 39.792C629.889 40.288 629.697 40.696 629.313 41.016C628.945 41.32 628.537 41.472 628.089 41.472C627.641 41.472 627.217 41.32 626.817 41.016C626.433 40.696 626.241 40.288 626.241 39.792ZM631.837 48.624C631.837 47.552 632.085 46.592 632.581 45.744C633.093 44.896 633.805 44.232 634.717 43.752C635.629 43.256 636.677 43.008 637.861 43.008C639.061 43.008 640.101 43.256 640.981 43.752C641.861 44.232 642.533 44.896 642.997 45.744C643.477 46.592 643.717 47.552 643.717 48.624C643.717 49.696 643.477 50.664 642.997 51.528C642.533 52.376 641.861 53.048 640.981 53.544C640.101 54.04 639.045 54.288 637.813 54.288C636.661 54.288 635.629 54.064 634.717 53.616C633.821 53.168 633.117 52.52 632.605 51.672C632.093 50.824 631.837 49.808 631.837 48.624ZM635.221 48.648C635.221 49.192 635.333 49.688 635.557 50.136C635.781 50.568 636.085 50.912 636.469 51.168C636.853 51.424 637.285 51.552 637.765 51.552C638.293 51.552 638.749 51.424 639.133 51.168C639.517 50.912 639.813 50.568 640.021 50.136C640.229 49.688 640.333 49.192 640.333 48.648C640.333 48.088 640.229 47.592 640.021 47.16C639.813 46.728 639.517 46.384 639.133 46.128C638.749 45.872 638.293 45.744 637.765 45.744C637.285 45.744 636.853 45.872 636.469 46.128C636.085 46.384 635.781 46.728 635.557 47.16C635.333 47.592 635.221 48.088 635.221 48.648ZM648.932 43.512L649.196 45.384L649.148 45.216C649.516 44.56 650.036 44.032 650.708 43.632C651.38 43.216 652.204 43.008 653.18 43.008C654.172 43.008 654.996 43.304 655.652 43.896C656.324 44.472 656.668 45.224 656.684 46.152V54H653.324V47.4C653.308 46.936 653.18 46.568 652.94 46.296C652.716 46.008 652.332 45.864 651.788 45.864C651.276 45.864 650.828 46.032 650.444 46.368C650.06 46.704 649.764 47.16 649.556 47.736C649.348 48.312 649.244 48.976 649.244 49.728V54H645.884V43.512H648.932Z" fill="white"/>
</svg>
