<svg width="42" height="43" viewBox="0 0 42 43" fill="none" xmlns="http://www.w3.org/2000/svg">
<circle cx="21" cy="21.5332" r="21" fill="#7EB2DD"/>
<path d="M20.9998 17.9281C19.0047 17.9281 17.3946 19.5382 17.3946 21.5333C17.3946 23.5285 19.0047 25.1386 20.9998 25.1386C22.995 25.1386 24.6051 23.5285 24.6051 21.5333C24.6051 19.5382 22.995 17.9281 20.9998 17.9281ZM20.9998 23.8765C19.7096 23.8765 18.6567 22.8236 18.6567 21.5333C18.6567 20.2431 19.7096 19.1902 20.9998 19.1902C22.2901 19.1902 23.343 20.2431 23.343 21.5333C23.343 22.8236 22.2901 23.8765 20.9998 23.8765ZM24.7528 16.9402C24.2869 16.9402 23.9108 17.3163 23.9108 17.7822C23.9108 18.248 24.2869 18.6242 24.7528 18.6242C25.2186 18.6242 25.5948 18.2497 25.5948 17.7822C25.5949 17.6716 25.5732 17.562 25.531 17.4598C25.4887 17.3576 25.4267 17.2647 25.3485 17.1865C25.2702 17.1083 25.1774 17.0462 25.0752 17.004C24.9729 16.9617 24.8634 16.94 24.7528 16.9402ZM28.0276 21.5333C28.0276 20.563 28.0364 19.6015 27.9819 18.6329C27.9274 17.5079 27.6707 16.5095 26.8481 15.6869C26.0237 14.8624 25.027 14.6076 23.902 14.5531C22.9317 14.4986 21.9702 14.5074 21.0016 14.5074C20.0313 14.5074 19.0698 14.4986 18.1012 14.5531C16.9762 14.6076 15.9778 14.8642 15.1551 15.6869C14.3307 16.5113 14.0758 17.5079 14.0213 18.6329C13.9668 19.6033 13.9756 20.5648 13.9756 21.5333C13.9756 22.5019 13.9668 23.4652 14.0213 24.4337C14.0758 25.5587 14.3325 26.5572 15.1551 27.3798C15.9795 28.2042 16.9762 28.4591 18.1012 28.5136C19.0715 28.5681 20.033 28.5593 21.0016 28.5593C21.9719 28.5593 22.9334 28.5681 23.902 28.5136C25.027 28.4591 26.0254 28.2025 26.8481 27.3798C27.6725 26.5554 27.9274 25.5587 27.9819 24.4337C28.0381 23.4652 28.0276 22.5036 28.0276 21.5333ZM26.4807 25.6783C26.3524 25.9982 26.1977 26.2372 25.9498 26.4833C25.702 26.7312 25.4647 26.8859 25.1448 27.0142C24.2202 27.3816 22.0246 27.299 20.9998 27.299C19.975 27.299 17.7778 27.3816 16.8532 27.016C16.5332 26.8876 16.2942 26.7329 16.0481 26.4851C15.8002 26.2372 15.6455 25.9999 15.5172 25.68C15.1516 24.7536 15.2342 22.5581 15.2342 21.5333C15.2342 20.5085 15.1516 18.3113 15.5172 17.3867C15.6455 17.0667 15.8002 16.8277 16.0481 16.5816C16.2959 16.3355 16.5332 16.179 16.8532 16.0507C17.7778 15.6851 19.975 15.7677 20.9998 15.7677C22.0246 15.7677 24.2219 15.6851 25.1465 16.0507C25.4664 16.179 25.7055 16.3337 25.9516 16.5816C26.1994 16.8294 26.3541 17.0667 26.4825 17.3867C26.8481 18.3113 26.7655 20.5085 26.7655 21.5333C26.7655 22.5581 26.8481 24.7536 26.4807 25.6783Z" fill="white"/>
</svg>
