<svg width="42" height="43" viewBox="0 0 42 43" fill="none" xmlns="http://www.w3.org/2000/svg">
<circle cx="21" cy="21.5332" r="21" fill="#7EB2DD"/>
<path fill-rule="evenodd" clip-rule="evenodd" d="M19.2871 19.5127H21.7631V20.746C22.1198 20.0367 23.0345 19.3994 24.4085 19.3994C27.0425 19.3994 27.6678 20.8114 27.6678 23.402V28.2H25.0011V23.992C25.0011 22.5167 24.6445 21.6847 23.7365 21.6847C22.4771 21.6847 21.9538 22.5814 21.9538 23.9914V28.2H19.2871V19.5127ZM14.7145 28.0867H17.3811V19.3994H14.7145V28.0867ZM17.7631 16.5667C17.7632 16.7902 17.7189 17.0115 17.6327 17.2178C17.5466 17.424 17.4202 17.611 17.2611 17.768C16.9387 18.0884 16.5023 18.2678 16.0478 18.2667C15.5941 18.2664 15.1587 18.0875 14.8358 17.7687C14.6773 17.6112 14.5514 17.4239 14.4654 17.2177C14.3793 17.0114 14.3349 16.7902 14.3345 16.5667C14.3345 16.1154 14.5145 15.6834 14.8365 15.3647C15.1591 15.0455 15.5946 14.8665 16.0485 14.8667C16.5031 14.8667 16.9391 15.046 17.2611 15.3647C17.5825 15.6834 17.7631 16.1154 17.7631 16.5667Z" fill="white"/>
</svg>
