<?xml version="1.0" encoding="UTF-8"?><svg xmlns="http://www.w3.org/2000/svg" viewBox="0 0 416.73 416.73"><defs><style>.b{fill:#230c08;}.c,.d{fill:#fff;}.e{fill:#e97237;}.f,.g{fill:none;stroke:#1b1b30;stroke-linecap:round;stroke-miterlimit:10;stroke-width:3.79px;}.h{fill:#1b1b30;}.i{fill:#f5f5f5;}.d{opacity:.3;}.j{isolation:isolate;}.k{fill:#f15a24;}.l{fill:#542d22;}.g{mix-blend-mode:multiply;}.m{fill:#e1e1e1;}.n,.o,.p{fill:#f7931e;}.q{opacity:.23;}.r{fill:#007cff;}.s{fill:#f5cf63;}.t{fill:#f9f0c7;}.o{opacity:.6;}.u{fill:#6969b7;}.p{mix-blend-mode:screen;}</style></defs><g class="j"><g id="a"><g><g class="q"><path class="e" d="M104.69,219.67c1.51-57.74,58.44-92.39,117.77-90.84,59.32,1.55,71.29,30.1,69.78,87.84s-29.17,96.69-76.7,116.82c-54.64,23.14-112.36-56.08-110.85-113.81Z"/><path class="s" d="M224.74,298.13c-45.38,16.59-95.99-7.75-113.04-54.37-17.05-46.62,14.54-59.66,59.92-76.25,45.38-16.59,87.37-30.46,104.42,16.16,17.05,46.62-5.92,97.87-51.3,114.47Z"/><path class="t" d="M240.26,184.73c21.12,37.35,7.14,85.23-31.24,106.93-38.38,21.7-54.38-4.08-75.51-41.44-21.12-37.35-39.37-72.13-.99-93.83,38.38-21.7,86.61-9.01,107.74,28.34Z"/></g><g><g><path class="l" d="M245.76,109.74s-.05,.01-.08,.03c-2.7,.88-6.64,1.97-9.9,2.26-.25,.03-.49,.05-.72,.06-.75,.04-1.44,.03-2.06-.04-.23-.01-.45-.05-.66-.09-.13-.03-.24-.05-.35-.09-.62-.16-1.12-.42-1.48-.78-3.47-3.64-2.88-2.75-2.88-2.75-.3-.33-.58-1.01-.83-1.92h0c.1,.04,.2,.09,.3,.14,.4,.19,.81,.37,1.21,.54,.29,.13,.57,.25,.86,.37-1.3-2.5-2.74-6.75-3.27-9.68,.08-1.77,.37-3.08,.93-3.23,.08-.03,.16-.04,.27-.05,.1-.03,.2-.04,.32-.05,.08-.01,.16-.03,.25-.03,.1-.01,.19-.03,.29-.03,.29-.03,.63-.05,1-.06,1.84-.09,4.45-.04,6.64,.2,.06,0,.13,.01,.18,.01,1.11,.13,2.11,.32,2.86,.57,.09,.03,.16,.05,.24,.09,.09,.03,.16,.06,.23,.09,.11,.05,.2,.1,.29,.15,.09,.05,.16,.11,.24,.18l.08,.08c.05,.05,.09,.1,.13,.16,.78,1.4,2.68,9.46,5.71,12.06,.8,.69,1.67,1,2.62,.73,.32-.09,.54-.15,.68-.16,.28,0-1.04,.56-3.08,1.24Z"/><path class="b" d="M248.16,108.66c-4.59,1.31-7.35-11.02-8.33-12.8-.38-.68-2.13-1.1-4.24-1.33,.31,.15,.53,.33,.64,.52,.65,1.16,1.56,7.1,3.42,10.68,.98,1.89-.35,4.16-2.47,4.32-.81,.06-1.74,.1-2.82,.12,4,3.13,18.3-2.79,13.8-1.51Z"/><path class="k" d="M233.89,111.39c-.19-.13-.34-.27-.48-.42-1.82-1.87-2.53-2.64-2.75-2.93h-.01c-.1-.11-.13-.15-.13-.15-1.24-1.49-2.11-9.8-1.57-13.56-.37,.01-.71,.04-1,.06-.1,0-.19,.01-.29,.03-.09,0-.18,.01-.25,.03-.11,.01-.21,.03-.32,.05-.1,.01-.19,.03-.27,.05-.57,.15-.86,1.47-.93,3.23-.09,2.65,.29,6.33,.9,8.62h0c.25,.92,.53,1.6,.83,1.93,0,0-.59-.88,2.88,2.75,.35,.37,.86,.62,1.48,.78,.13,.03,.25,.05,.38,.08,.2,.04,.42,.08,.63,.1,.61,.06,1.29,.06,2,.03,.25-.01,.52-.03,.78-.05-.75-.1-1.39-.3-1.88-.63Z"/><path class="p" d="M229.17,107.46c-.29-.11-.57-.24-.86-.37-.4-.18-.81-.35-1.21-.54-.1-.05-.2-.1-.3-.15-.61-2.29-.99-5.96-.9-8.62,.53,2.93,1.97,7.18,3.27,9.68Z"/><path class="l" d="M290.97,104.8c-.05,1.1-.23,2.21-.52,3.33-2.23,8.67-10.98,17.43-16.37,22.37-.67,.61-1.29,1.17-1.84,1.66-2.85,2.55-8.55,3.23-15.68,3.87-6.65,.61-14.53,1.18-22.51,3.21-.53,.14-1.09,.25-1.66,.35-.29,.05-.59,.09-.88,.13-.3,.04-.61,.08-.92,.11-17.75,1.81-52.1-10.2-53.89-11.79-.03-.03-.05-.05-.07-.08-.15-.32-.29-.64-.42-.95-.43-1.01-.78-1.97-1.05-2.87-.14-.45-.25-.88-.34-1.3-.06-.23-.11-.45-.14-.67-.03-.11-.05-.22-.06-.33-.03-.11-.04-.21-.05-.32-.07-.41-.11-.8-.14-1.19-.03-.42-.05-.82-.03-1.21v-.05c.18-7.49,7.29-8.78,7.29-8.78,0,0,11.48,3.37,23.85,5.94,1.98,.42,4,.8,5.99,1.16,8.17,1.46,16,2.29,20.42,1.29,12.2-2.75,37.01-16.66,37.4-16.8,.4-.13,21.61,2.89,21.61,2.89Z"/><path class="b" d="M181.69,110.3s-3.35,.62-5.52,3.42c7.43,3.3,41.17,14.22,55.95,10.47,16.54-4.2,32.68-2.16,38.19-7.08,3.12-2.78,8.53-7.72,12.74-13.43-6.07-.85-13.47-1.85-13.7-1.78-.39,.13-25.2,14.04-37.4,16.8-12.21,2.76-50.26-8.4-50.26-8.4Z"/><path class="l" d="M250.06,88.12s-20.9,1.81-23.23,0c-4.2-3.26-5.64-18.11,9.45-19.69,15.09-1.57,20.73,2.85,26.9,2.1,7.61-.92,28.61,2.36,29.53,3.54s3.15,41.21-12.99,46.98c-16.14,5.77-20.28,7.19-27.89,7.58-7.61,.39-22.05,.03-29.92-2.46-7.87-2.49-28.87-18.24-27.95-22.98,.92-4.74,8.2-12.32,12.14-10.35,3.94,1.97,28.87,25.2,41.34,13.65,12.47-11.55,10.11-18.64,10.11-18.64,0,0-3.72-.52-7.48,.26Z"/><g><path class="k" d="M248.88,87.53s-17.52-.82-20.64-.72c-2.13,.07-3.69-5.02-4.24-6.76-.14,3.49,1.12,6.75,2.83,8.08,2.33,1.81,23.23,0,23.23,0,3.76-.78,7.48-.26,7.48-.26,0,0-4.57-1.11-8.66-.33Z"/><path class="k" d="M284.21,116.92c-17.6,5.77-27.97,11.87-36.24,11.17-14.93-1.27-17.38-1.7-26.31-5.12-6.15-2.35-20.88-11.8-27.46-18.32,2.35,5.89,20.52,19.25,27.72,21.53,7.87,2.49,22.31,2.85,29.92,2.46,7.61-.39,11.75-1.8,27.89-7.58,2.5-.89,4.55-2.61,6.24-4.87-.56,.28-1.15,.53-1.76,.73Z"/></g><path class="l" d="M243.6,122.51l-4.16,3.43s-.62,2.83,2.71,6.59c.69,.78,1.55,1.6,2.63,2.44,1.76,1.43-11.87,.16-18.04,3.62,8.79,2.36,21.77,.56,25.59,.21,7.13-.65,17.06-4.09,19.91-6.64,.39-.35,.83-.75,1.3-1.17,4.67-2.65,9.4-6.94,12.95-13.86,9.3-18.11-42.89,5.38-42.89,5.38Zm3.64,11.61s.05-.06,.09-.04l-.09,.04Z"/><path class="b" d="M291.04,104.5c-2.72,19.81-17.24,26.88-18.8,27.98s-8.01,4.33-15.5,5.64c6.53-2.3,7.47-4.19,11.1-6.23,5.27-2.95,4.47-3.08,6.73-5.66,1.07-1.21,6.62-5.58,7.61-6.97,.55-.21-5.21-.03-1.89-1.05,2.13-.66,6.73-3.49,10.74-13.71Z"/><g><path class="b" d="M236.76,109.57c-.23,.19-.45,.38-.69,.54-.27,.2-.52,.38-.8,.54-.44,.28-.91,.52-1.38,.73l-.19,.08c-.44,.19-.88,.34-1.34,.48t-.03,.01c-.47,.13-.95,.23-1.44,.3-11.57,1.88-27.38-11.15-33.29-15.45,2.03-2.25,4.54-4.04,6.65-4.26,.14-.01,.28-.03,.42-.03,.51,0,.99,.1,1.43,.32,.11,.06,.25,.14,.4,.23,.23,.14,.51,.33,.82,.56,.34,.23,.73,.52,1.17,.85,.35,.27,.75,.56,1.15,.86,.35,.25,.71,.52,1.09,.81,.14,.1,.29,.21,.44,.33,.71,.53,1.47,1.09,2.27,1.68,1.34,.97,2.82,2.02,4.4,3.07,.35,.24,.72,.48,1.09,.71,1.1,.72,2.24,1.41,3.4,2.1,.38,.23,.77,.45,1.17,.67,.51,.28,1.01,.56,1.53,.82,.58,.32,1.16,.61,1.76,.88,.1,.05,.2,.1,.3,.15,.4,.19,.81,.37,1.21,.54,.29,.13,.57,.25,.86,.37,.01,0,.01,.01,.01,.01,.49,.2,.97,.39,1.47,.57h.01c.09,.04,.18,.06,.27,.1,.27,.09,.53,.18,.8,.27,.16,.06,.34,.11,.51,.16,.32,.1,.63,.19,.95,.28,.4,.11,.81,.21,1.21,.3,.37,.09,.72,.16,1.09,.21,.37,.08,.72,.13,1.07,.16,.08,.03,.14,.03,.21,.04Z"/><path class="b" d="M292.72,74.08c-.92-1.18-21.92-4.46-29.53-3.54-6.18,.75-11.81-3.67-26.9-2.1-3.17,.33-5.6,1.25-7.44,2.52,12.96-.77,18.26,3.03,24.03,2.34,7.61-.92,24.63,2.36,28.49,7.22,4.47,5.62,4.19,37.53-11.95,43.31-5.1,1.82-9,3.21-12.19,4.27,5.1-.84,10.46-2.72,22.5-7.03,16.14-5.77,13.91-45.8,12.99-46.98Z"/></g><path class="k" d="M247.91,135.79c-.24,.07-.51,.15-.78,.22-1.82,.55-4.13,1.21-6.61,1.87-2.14,.36-4.29,.81-6.46,1.35-.54,.13-1.09,.25-1.67,.36-.28,.04-.58,.09-.88,.13-.3,.03-.6,.07-.91,.1-17.76,1.87-51.86-9.87-53.89-11.79-.03-.03-.06-.04-.06-.07-.24-.37-.43-.7-.6-.99,0-.01,0-.03-.01-.04-.55-1.14-.58-1.87-.87-2.78-.07-.25-.31-.82-.34-1.3-.06-.24-.1-.45-.13-.67-.03-.1-.04-.22-.06-.33-.03-.1-.04-.21-.06-.31-.06-.4-.1-.81-.13-1.18,.61,.31,1.47,.81,2.63,1.52,5.25,3.26,37.94,14.84,54.97,13.63,2.12-.15,10.78,.69,14.61,.45,.3-.01,.57-.04,.81-.09,.18-.01,.33-.04,.46-.07Z"/><path class="p" d="M247.44,135.87c-.07,.04-.18,.09-.31,.15-.55,.25-1.51,.67-3.03,1.3-1.18,.16-2.38,.36-3.57,.57-2.14,.36-4.29,.81-6.46,1.35-.54,.13-1.09,.25-1.67,.36-.28,.04-.58,.09-.88,.13-.3,.03-.6,.07-.91,.1-17.76,1.87-51.86-9.87-53.89-11.79-.03-.03-.06-.04-.06-.07-.24-.37-.43-.7-.6-.99,0-.01,0-.03-.01-.04-.55-1.14-.58-1.87-.87-2.78-.07-.25-.31-.82-.34-1.3-.04-.84,.58-1.36,3.92,.7,5.25,3.26,38.9,17.83,55.43,13.63,1.02-.25,6.67,.04,7.73-.24,.27,.22,2.87-.66,3.17-.45,0,0,.84-.3,1.57-.54,.88-.28,1.64-.49,.81-.09Z"/><polygon class="l" points="251.06 137.63 240.87 139.4 237.66 132.88 247.81 132.88 251.06 137.63"/></g><g><path class="h" d="M222.21,306.78h-49c-2.6,0-4.16-2.89-2.73-5.06l3.59-5.45c.61-.92,1.63-1.47,2.73-1.47h4.8c.28,1.15,1.32,2.08,2.64,2.08h26.93c1.32,0,2.36-.92,2.64-2.08h4.8c1.1,0,2.12,.55,2.73,1.47l3.59,5.45c1.42,2.17-.13,5.06-2.73,5.06Z"/><path class="h" d="M215.78,291.67h-2.72l-1.57-3.57c-.43-.99-1.41-1.63-2.49-1.63h-22.59c-1.08,0-2.06,.64-2.5,1.63l-1.56,3.57h-1.07c-7.2,0-12.78-6.86-12.47-15.16l3.73-92.15c.24-6.23,5.35-11.19,11.43-11.19h29.12c6.08,0,11.2,4.96,11.43,11.19l3.73,92.15c.32,8.3-5.27,15.16-12.47,15.16Z"/><path class="p" d="M188.47,191.86h6.69l.59,2.81h.21c2.23-2.04,5.27-3.48,8.24-3.48,6.9,0,11.09,5.53,11.09,14.07,0,9.48-5.8,14.93-12,14.93-2.43,0-4.83-1.08-6.8-2.99h-.19l.38,4.49v17.9h0c-4.53,0-8.21-3.67-8.21-8.21v-39.51Zm18.41,13.48c0-4.96-1.63-7.43-5.1-7.43-1.75,0-3.37,.74-5.1,2.57v11.16c1.54,1.36,3.3,1.83,4.74,1.83,3.03,0,5.47-2.41,5.47-8.13Z"/><path class="h" d="M188.73,258.6v-15.59c0-4.04,.9-7.62-2.37-10.06-5.7-4.25-4.35-7.02-3.32-12.15,1.92,1.68,2.5,7.26,8.49,8.59,3.37,.75,4.86,2.96,5.41,4.76v24.79c0,3.42,2.2,4.53,4.51,4.53,1.28,0,2.63-.27,4.31-.9l1.81,6.03c-2.87,.94-4.82,1.5-8.25,1.5-6.97,0-10.59-4.47-10.59-11.49Z"/><path class="k" d="M188.39,261.37v-15.59c0-4.04,.9-7.62-2.37-10.06-5.7-4.25-4.35-7.02-3.32-12.15,1.92,1.68,2.5,7.26,8.49,8.59,3.37,.75,4.86,2.96,5.41,4.76v24.79c0,3.42,2.2,4.53,4.51,4.53,1.28,0,2.63-.27,4.31-.9l1.81,6.03c-2.87,.94-4.82,1.5-8.25,1.5-6.97,0-10.59-4.47-10.59-11.49Z"/><path class="h" d="M211.17,178.37h-26.93c-1.96,0-3.28-2.02-2.5-3.82l2.17-4.96c.43-.99,1.41-1.63,2.5-1.63h22.59c1.08,0,2.06,.64,2.5,1.63l2.17,4.96c.79,1.8-.53,3.82-2.5,3.82Z"/><path class="h" d="M197.89,155.95c-3.85,0-6.97,3.12-6.97,6.97s3.12,6.97,6.97,6.97,6.97-3.12,6.97-6.97-3.12-6.97-6.97-6.97Zm0,9.94c-1.64,0-2.97-1.33-2.97-2.97s1.33-2.97,2.97-2.97,2.97,1.33,2.97,2.97-1.33,2.97-2.97,2.97Z"/></g><line class="g" x1="198.51" y1="116.5" x2="198.51" y2="134.21"/><line class="f" x1="197.61" y1="113.43" x2="197.61" y2="162.23"/></g><g><rect class="n" x="268.74" y="204.73" width="35.93" height="35.93" rx="9.56" ry="9.56" transform="translate(191.27 -127.57) rotate(36.92)"/><g><path class="c" d="M284.4,230.61c-.91,1.21-2.63,1.46-3.85,.55s-1.46-2.63-.55-3.85,2.63-1.46,3.85-.55,1.46,2.63,.55,3.85Z"/><path class="c" d="M291.17,217.12c3.91,2.94,5.61,7.67,4.96,12.2l3.36,.02c.63-5.55-1.54-11.29-6.32-14.88-5.04-3.79-11.56-4.13-16.87-1.56l1.18,3.1c4.28-2.19,9.6-1.96,13.69,1.12Z"/><path class="c" d="M288.03,221.43c2.72,2.04,3.8,5.42,3.1,8.55l3.38,.02c.66-4.16-.89-8.53-4.48-11.23-3.75-2.82-8.64-3.01-12.54-.95l1.2,3.16c2.84-1.7,6.53-1.65,9.34,.46Z"/><path class="c" d="M284.92,225.42c1.59,1.19,1.97,3.31,1.1,5.02l3.59,.02c.71-2.79-.24-5.87-2.69-7.71s-5.83-1.92-8.35-.34l1.26,3.3c1.4-1.27,3.52-1.48,5.09-.3Z"/></g></g><g><rect class="k" x="125.94" y="125.44" width="37.57" height="37.57" rx="9.56" ry="9.56" transform="translate(-57.06 112.17) rotate(-35.87)"/><path class="c" d="M131.04,145.59l2.63,3.64-2.66,1.92,3.85,5.32,2.66-1.92,2.63,3.64,19.89-14.38-9.12-12.61-19.89,14.38Zm16.46,3.88l-5.43,3.93-5.88-8.12,8.12-5.88,3.18,10.07Z"/></g><g><path class="r" d="M103.77,224.43h16.78c5.27,0,9.55,4.28,9.55,9.55v16.78c0,5.27-4.28,9.55-9.55,9.55h-16.78c-5.27,0-9.55-4.28-9.55-9.55v-16.78c0-5.27,4.28-9.55,9.55-9.55Z" transform="translate(120.17 -24.57) rotate(26.55)"/><path class="n" d="M103.77,224.43h16.78c5.27,0,9.55,4.28,9.55,9.55v16.78c0,5.27-4.28,9.55-9.55,9.55h-16.78c-5.27,0-9.55-4.28-9.55-9.55v-16.78c0-5.27,4.28-9.55,9.55-9.55Z" transform="translate(120.17 -24.57) rotate(26.55)"/><g><g><path class="c" d="M118.31,239.06l-2.26,4.52c-.94,1.87-3.21,2.63-5.08,1.7l-4.31-2.16-7.39,2.47,2.46-4.93c-1.87-.94-2.63-3.21-1.7-5.08l2.26-4.52c.94-1.87,3.21-2.63,5.08-1.7l9.24,4.62c1.87,.94,2.63,3.21,1.7,5.08Z"/><path class="n" d="M98.41,246.33l2.75-5.5c-1.8-1.14-2.49-3.5-1.51-5.45l2.26-4.52c1.04-2.08,3.58-2.93,5.66-1.89l9.24,4.62c2.08,1.04,2.93,3.58,1.89,5.66l-2.26,4.52c-1.04,2.08-3.58,2.93-5.66,1.89l-4.15-2.08-8.21,2.74Zm8.77-16.58c-1.65-.83-3.67-.15-4.5,1.5l-2.26,4.52c-.83,1.65-.15,3.67,1.5,4.5l.39,.19-2.19,4.38,6.57-2.19,4.47,2.24c1.65,.83,3.67,.15,4.5-1.5l2.26-4.52c.83-1.65,.15-3.67-1.5-4.5l-9.24-4.62Z"/></g><g><path class="c" d="M123.73,250.29l-1.74,3.48c-.72,1.44-2.47,2.02-3.91,1.3l-1.89,3.79-1.9-5.69-3.32-1.66c-1.44-.72-2.02-2.47-1.3-3.91l1.74-3.48c.72-1.44,2.47-2.02,3.91-1.3l7.11,3.55c1.44,.72,2.02,2.47,1.3,3.91Z"/><path class="n" d="M116.11,259.99l-2.17-6.51-3.16-1.58c-1.65-.83-2.32-2.84-1.5-4.49l1.74-3.48c.83-1.65,2.84-2.32,4.49-1.5l7.11,3.55c1.65,.83,2.32,2.84,1.5,4.49l-1.74,3.48c-.76,1.52-2.53,2.21-4.09,1.67l-2.18,4.36Zm-.99-16.78c-1.22-.61-2.72-.11-3.33,1.11l-1.74,3.48c-.61,1.22-.11,2.72,1.11,3.33l3.48,1.74,1.62,4.86,1.62-3.24,.39,.19c1.22,.61,2.72,.11,3.33-1.11l1.74-3.48c.61-1.22,.11-2.72-1.11-3.33l-7.11-3.55Z"/></g><g><path class="n" d="M114.58,237.55l-8.37-4.18c-.21-.11-.3-.37-.19-.58s.37-.3,.58-.19l8.37,4.18c.21,.11,.3,.37,.19,.58s-.37,.3-.58,.19Z"/><path class="n" d="M113.61,239.51l-8.37-4.18c-.21-.11-.3-.37-.19-.58s.37-.3,.58-.19l8.37,4.18c.21,.11,.3,.37,.19,.58s-.37,.3-.58,.19Z"/><path class="n" d="M110.31,240.29l-6.04-3.02c-.21-.11-.3-.37-.19-.58s.37-.3,.58-.19l6.04,3.02c.21,.11,.3,.37,.19,.58s-.37,.3-.58,.19Z"/></g></g></g><g><rect class="k" x="250.56" y="279.11" width="35.93" height="35.93" rx="9.56" ry="9.56" transform="translate(-120.55 202.32) rotate(-34.2)"/><rect class="o" x="250.56" y="279.11" width="35.93" height="35.93" rx="9.56" ry="9.56" transform="translate(-120.55 202.32) rotate(-34.2)"/><g><path class="r" d="M286.14,295.52c-1.11-1.25-10.57-12.02-11.71-13.24-1.14-1.22-6.65,2.2-6.31,4.29,.01,.08,.02,.17,.02,.25,.02,.61-.3,1.18-.77,1.57l-2.9,2.38c-.1,.08-.2,.15-.32,.21l-3.28,1.82c-.53,.3-1.18,.38-1.74,.14-.07-.03-.15-.07-.22-.11-1.82-1.08-7.03,2.78-6.31,4.29,.72,1.51,7.24,14.27,8,15.76,.76,1.49,3.15,.53,3.23-.98,.07-1.21,.36-6.65,.47-8.77,.03-.54,.27-1.05,.66-1.43l2.43-2.28c1.11-1.04,2.37-1.89,3.74-2.54l3.01-1.42c.49-.23,1.05-.27,1.57-.09,2.01,.67,7.18,2.41,8.32,2.79,1.43,.47,3.21-1.39,2.1-2.65Z"/><path class="c" d="M286.14,295.52c-1.11-1.25-10.57-12.02-11.71-13.24-1.14-1.22-6.65,2.2-6.31,4.29,.01,.08,.02,.17,.02,.25,.02,.61-.3,1.18-.77,1.57l-2.9,2.38c-.1,.08-.2,.15-.32,.21l-3.28,1.82c-.53,.3-1.18,.38-1.74,.14-.07-.03-.15-.07-.22-.11-1.82-1.08-7.03,2.78-6.31,4.29,.72,1.51,7.24,14.27,8,15.76,.76,1.49,3.15,.53,3.23-.98,.07-1.21,.36-6.65,.47-8.77,.03-.54,.27-1.05,.66-1.43l2.43-2.28c1.11-1.04,2.37-1.89,3.74-2.54l3.01-1.42c.49-.23,1.05-.27,1.57-.09,2.01,.67,7.18,2.41,8.32,2.79,1.43,.47,3.21-1.39,2.1-2.65Z"/><g><g><rect class="r" x="256.86" y="298.55" width="5.92" height="1.72" transform="translate(-82.97 498.54) rotate(-79.2)"/><rect class="r" x="256.86" y="298.55" width="5.92" height="1.72" transform="translate(60.69 -43.37) rotate(10.8)"/><polygon class="h" points="259.53 296.34 259.14 298.41 257.07 298.01 256.75 299.7 258.81 300.1 258.42 302.16 260.11 302.48 260.5 300.42 262.57 300.81 262.89 299.12 260.83 298.73 261.22 296.67 259.53 296.34"/></g><g><rect class="r" x="270.94" y="288.98" width="5.92" height="1.72" transform="translate(-62.13 504.59) rotate(-79.2)"/><rect class="r" x="270.94" y="288.98" width="5.92" height="1.72" transform="translate(59.15 -46.18) rotate(10.8)"/><polygon class="h" points="273.61 286.78 273.21 288.84 271.15 288.44 270.83 290.14 272.89 290.53 272.5 292.59 274.19 292.91 274.58 290.85 276.64 291.25 276.97 289.55 274.9 289.16 275.3 287.1 273.61 286.78"/></g></g></g></g><g><path class="h" d="M271.19,179.1l-6.49,19.69,11.8-19.69h20.73c3.58,0,6.49-2.9,6.49-6.49v-13.84c0-3.58-2.9-6.49-6.49-6.49h-26.04c-3.58,0-6.49,2.9-6.49,6.49v13.84c0,3.58,2.9,6.49,6.49,6.49Z"/><path class="d" d="M271.19,179.1l-6.49,19.69,11.8-19.69h20.73c3.58,0,6.49-2.9,6.49-6.49v-13.84c0-3.58-2.9-6.49-6.49-6.49h-26.04c-3.58,0-6.49,2.9-6.49,6.49v13.84c0,3.58,2.9,6.49,6.49,6.49Z"/><rect class="m" x="273.71" y="172.98" width="22.07" height=".7"/><polygon class="m" points="278.22 169.1 272.51 164.69 272.51 163.26 278.03 167.51 283.56 161.35 284.64 162.68 288.5 158.39 289.79 159.69 296.02 157.1 296.02 158.24 289.41 160.98 288.55 160.12 284.58 164.54 283.5 163.21 278.22 169.1"/></g><g><path class="h" d="M145.62,302.73l6.53-19.84-11.88,19.84h-20.88c-3.61,0-6.53,2.93-6.53,6.53v13.94c0,3.61,2.93,6.53,6.53,6.53h26.23c3.61,0,6.53-2.93,6.53-6.53v-13.94c0-3.61-2.93-6.53-6.53-6.53Z"/><path class="d" d="M145.62,302.73l6.53-19.84-11.88,19.84h-20.88c-3.61,0-6.53,2.93-6.53,6.53v13.94c0,3.61,2.93,6.53,6.53,6.53h26.23c3.61,0,6.53-2.93,6.53-6.53v-13.94c0-3.61-2.93-6.53-6.53-6.53Z"/><g><rect class="m" x="116.72" y="323.07" width="31.57" height="1.06"/><rect class="m" x="116.72" y="314.39" width="1.67" height="6.81"/><rect class="m" x="119.47" y="312.06" width="1.67" height="9.14"/><rect class="m" x="122.15" y="310.04" width="1.67" height="11.16"/><rect class="m" x="124.83" y="311.18" width="1.67" height="10.02"/><rect class="m" x="127.58" y="313.32" width="1.67" height="7.88"/><rect class="m" x="130.26" y="313.12" width="1.67" height="8.08"/><rect class="m" x="133.08" y="312.86" width="1.67" height="8.34"/><rect class="m" x="135.84" y="311.18" width="1.67" height="10.02"/><rect class="m" x="138.51" y="309.42" width="1.67" height="11.78"/><rect class="m" x="141.19" y="313.32" width="1.67" height="7.88"/><rect class="m" x="143.94" y="310.22" width="1.67" height="10.97"/><rect class="m" x="146.62" y="307.93" width="1.67" height="13.27"/></g></g><g><ellipse class="u" cx="144.39" cy="221.18" rx="3.12" ry="3.31"/><path d="M132.81,276.54l-1.47-1.47-.93,.93,1.47,1.47-1.5,1.5,.99,.99,1.5-1.5,1.48,1.48,.93-.93-1.48-1.48,1.51-1.51-.99-.99-1.51,1.51Z"/><ellipse class="u" cx="268.52" cy="263.93" rx="3.12" ry="3.31"/></g><g><path class="h" d="M233.72,332.32l-5.82-17.66,10.58,17.66h18.59c3.21,0,5.82,2.6,5.82,5.82v12.42c0,3.21-2.6,5.82-5.82,5.82h-23.36c-3.21,0-5.82-2.6-5.82-5.82v-12.42c0-3.21,2.6-5.82,5.82-5.82Z"/><path class="d" d="M233.72,332.32l-5.82-17.66,10.58,17.66h18.59c3.21,0,5.82,2.6,5.82,5.82v12.42c0,3.21-2.6,5.82-5.82,5.82h-23.36c-3.21,0-5.82-2.6-5.82-5.82v-12.42c0-3.21,2.6-5.82,5.82-5.82Z"/><g><g><path class="i" d="M238.95,349.95c0,2.5-2.02,4.52-4.52,4.52s-4.52-2.02-4.52-4.52,2.02-4.52,4.52-4.52,4.52,2.02,4.52,4.52Z"/><path class="m" d="M237.69,350.99c-.21,.02-1.35,0-2.62-.01v-.44c.74-.27,1.27-1.03,1.27-1.94,0-1.13-.83-2.04-1.84-2.04s-1.84,.91-1.84,2.04c0,.88,.5,1.62,1.2,1.91v.45c-1.31-.01-2.5-.02-2.74,.03-.55,.09-.54,.75-.54,.75,0,0,1.23,2.49,3.9,2.49s3.71-2.49,3.71-2.49c0,0,0-.79-.5-.75Z"/></g><g><circle class="i" cx="234.43" cy="339.38" r="4.52"/><path class="m" d="M237.69,340.41c-.21,.02-1.35,0-2.62-.01v-.44c.74-.27,1.27-1.03,1.27-1.94,0-1.13-.83-2.04-1.84-2.04s-1.84,.91-1.84,2.04c0,.88,.5,1.62,1.2,1.91v.45c-1.31-.01-2.5-.02-2.74,.03-.55,.09-.54,.75-.54,.75,0,0,1.23,2.49,3.9,2.49s3.71-2.49,3.71-2.49c0,0,0-.79-.5-.75Z"/></g><g><path class="i" d="M249.95,349.95c0,2.5-2.02,4.52-4.52,4.52s-4.52-2.02-4.52-4.52,2.02-4.52,4.52-4.52,4.52,2.02,4.52,4.52Z"/><path class="m" d="M248.7,350.99c-.21,.02-1.35,0-2.62-.01v-.44c.74-.27,1.27-1.03,1.27-1.94,0-1.13-.83-2.04-1.84-2.04s-1.84,.91-1.84,2.04c0,.88,.5,1.62,1.2,1.91v.45c-1.31-.01-2.5-.02-2.74,.03-.55,.09-.54,.75-.54,.75,0,0,1.23,2.49,3.9,2.49s3.71-2.49,3.71-2.49c0,0,0-.79-.5-.75Z"/></g><g><circle class="i" cx="245.43" cy="339.38" r="4.52"/><path class="m" d="M248.7,340.41c-.21,.02-1.35,0-2.62-.01v-.44c.74-.27,1.27-1.03,1.27-1.94,0-1.13-.83-2.04-1.84-2.04s-1.84,.91-1.84,2.04c0,.88,.5,1.62,1.2,1.91v.45c-1.31-.01-2.5-.02-2.74,.03-.55,.09-.54,.75-.54,.75,0,0,1.23,2.49,3.9,2.49s3.71-2.49,3.71-2.49c0,0,0-.79-.5-.75Z"/></g><g><path class="i" d="M260.48,349.95c0,2.5-2.02,4.52-4.52,4.52s-4.52-2.02-4.52-4.52,2.02-4.52,4.52-4.52,4.52,2.02,4.52,4.52Z"/><path class="m" d="M259.22,350.99c-.21,.02-1.35,0-2.62-.01v-.44c.74-.27,1.27-1.03,1.27-1.94,0-1.13-.83-2.04-1.84-2.04s-1.84,.91-1.84,2.04c0,.88,.5,1.62,1.2,1.91v.45c-1.31-.01-2.5-.02-2.74,.03-.55,.09-.54,.75-.54,.75,0,0,1.23,2.49,3.9,2.49s3.71-2.49,3.71-2.49c0,0,0-.79-.5-.75Z"/></g><g><path class="i" d="M260.48,339.38c0,2.5-2.02,4.52-4.52,4.52s-4.52-2.02-4.52-4.52,2.02-4.52,4.52-4.52,4.52,2.02,4.52,4.52Z"/><path class="m" d="M259.22,340.41c-.21,.02-1.35,0-2.62-.01v-.44c.74-.27,1.27-1.03,1.27-1.94,0-1.13-.83-2.04-1.84-2.04s-1.84,.91-1.84,2.04c0,.88,.5,1.62,1.2,1.91v.45c-1.31-.01-2.5-.02-2.74,.03-.55,.09-.54,.75-.54,.75,0,0,1.23,2.49,3.9,2.49s3.71-2.49,3.71-2.49c0,0,0-.79-.5-.75Z"/></g></g></g><g><path class="h" d="M121.09,195.23l6.31,12.01-11.47-12.01h-20.16c-3.48,0-6.31-2.82-6.31-6.31v-13.46c0-3.48,2.82-6.31,6.31-6.31h25.32c3.48,0,6.31,2.82,6.31,6.31v13.46c0,3.48-2.82,6.31-6.31,6.31Z"/><path class="d" d="M121.09,195.23l6.31,12.01-11.47-12.01h-20.16c-3.48,0-6.31-2.82-6.31-6.31v-13.46c0-3.48,2.82-6.31,6.31-6.31h25.32c3.48,0,6.31,2.82,6.31,6.31v13.46c0,3.48-2.82,6.31-6.31,6.31Z"/><path class="c" d="M119.98,178.94h-24.48c-.72,0-1.3-.58-1.3-1.3h0c0-.72,.58-1.3,1.3-1.3h24.48c.72,0,1.3,.58,1.3,1.3h0c0,.72-.58,1.3-1.3,1.3Z"/><path class="c" d="M119.98,183.23h-24.48c-.72,0-1.3-.58-1.3-1.3h0c0-.72,.58-1.3,1.3-1.3h24.48c.72,0,1.3,.58,1.3,1.3h0c0,.72-.58,1.3-1.3,1.3Z"/><path class="c" d="M119.98,187.51h-24.48c-.72,0-1.3-.58-1.3-1.3h0c0-.72,.58-1.3,1.3-1.3h24.48c.72,0,1.3,.58,1.3,1.3h0c0,.72-.58,1.3-1.3,1.3Z"/></g><g><polygon class="n" points="184.08 346.15 185.46 348.94 188.54 349.39 186.31 351.56 186.83 354.63 184.08 353.18 181.33 354.63 181.85 351.56 179.62 349.39 182.7 348.94 184.08 346.15"/><polygon class="n" points="194.19 346.15 195.57 348.94 198.65 349.39 196.42 351.56 196.95 354.63 194.19 353.18 191.44 354.63 191.97 351.56 189.74 349.39 192.82 348.94 194.19 346.15"/><polygon class="n" points="204.31 346.15 205.68 348.94 208.76 349.39 206.54 351.56 207.06 354.63 204.31 353.18 201.55 354.63 202.08 351.56 199.85 349.39 202.93 348.94 204.31 346.15"/></g></g></g></g></svg>