<svg width="109" height="72" viewBox="0 0 109 72" fill="none" xmlns="http://www.w3.org/2000/svg">
<path d="M28.5895 71.4671H2.36109C0.96878 71.4671 0.137117 70.0973 0.90051 69.0698L2.82244 66.4857C3.14725 66.0517 3.69548 65.7898 4.28303 65.7898H6.8525C7.00559 66.3374 7.5559 66.7751 8.26757 66.7751H22.681C23.3927 66.7751 23.9451 66.3374 24.0981 65.7898H26.6676C27.2552 65.7898 27.8034 66.0517 28.1261 66.4857L30.0481 69.0698C30.8135 70.0973 29.9798 71.4671 28.5895 71.4671Z" fill="#1B1B30"/>
<path d="M17.6556 19.8799C16.7164 19.8799 15.8496 20.2334 14.9248 21.096V26.3833C15.7503 27.0279 16.6916 27.2532 17.4612 27.2532C19.0811 27.2532 20.3865 26.1141 20.3865 23.4017C20.3865 21.052 19.5155 19.8818 17.6556 19.8818V19.8799Z" fill="#1B1B30"/>
<path d="M39.4751 31.2017C39.4751 30.5827 39.6551 29.9966 40.013 29.4417C40.3709 28.8868 40.8674 28.4436 41.5046 28.1103C42.1397 27.777 42.8783 27.6341 43.7203 27.6817L43.8817 25.2551C43.47 25.2551 42.9631 25.3705 42.3631 25.5994C41.7632 25.8302 41.186 26.158 40.6295 26.5866C40.0957 26.9986 39.6882 27.4894 39.4027 28.0627L39.1792 25.6837H36.7339V35.6246H39.473V31.2017H39.4751Z" fill="#1B1B30"/>
<path d="M56.336 33.2694C56.847 32.4617 57.1015 31.557 57.1015 30.5589C57.1015 29.5608 56.847 28.6561 56.336 27.8484C55.825 27.0408 55.1092 26.4016 54.1865 25.9346C53.2638 25.4676 52.1859 25.2332 50.9488 25.2332C49.7116 25.2332 48.6193 25.4676 47.6718 25.9346C46.7222 26.4016 45.9795 27.0408 45.4416 27.8484C44.9037 28.6579 44.6348 29.5608 44.6348 30.5589C44.6348 31.6376 44.9079 32.5771 45.454 33.3774C46.0002 34.1778 46.7429 34.7968 47.6842 35.2327C48.6255 35.6685 49.6951 35.8865 50.895 35.8865C52.0949 35.8865 53.241 35.6521 54.172 35.185C55.103 34.718 55.825 34.0789 56.3339 33.2712L56.336 33.2694ZM52.6556 33.4232C52.128 33.7163 51.5219 33.8628 50.8412 33.8628C50.2144 33.8628 49.6413 33.7163 49.122 33.4232C48.6028 33.1302 48.1911 32.7383 47.8869 32.2456C47.5828 31.7548 47.4297 31.1907 47.4297 30.5571C47.4297 29.9234 47.5766 29.4033 47.8725 28.9051C48.1683 28.4052 48.5759 28.0059 49.0951 27.7037C49.6144 27.4034 50.1957 27.2514 50.8412 27.2514C51.5405 27.2514 52.1487 27.4015 52.668 27.7037C53.1873 28.0041 53.5907 28.4052 53.8762 28.9051C54.1617 29.4051 54.3065 29.9564 54.3065 30.5571C54.3065 31.1578 54.1637 31.7347 53.8762 32.2328C53.5907 32.7328 53.1831 33.1284 52.6535 33.4214L52.6556 33.4232Z" fill="#1B1B30"/>
<path d="M69.0409 34.1705V35.6246H71.8338V17.1457H69.0678V26.9162C68.6437 26.3943 68.0686 25.9859 67.3341 25.6947C66.5542 25.3852 65.7453 25.2313 64.9033 25.2313C63.7923 25.2313 62.7889 25.442 61.8952 25.8613C60.9994 26.2807 60.2919 26.8833 59.7726 27.6689C59.2533 28.4528 58.9927 29.4015 58.9927 30.5113C58.9927 31.6211 59.2347 32.513 59.7188 33.3298C60.2029 34.1466 60.865 34.7767 61.707 35.2199C62.549 35.6631 63.4986 35.8865 64.5537 35.8865C65.6088 35.8865 66.488 35.696 67.2948 35.3151C67.9631 35.0001 68.5444 34.6173 69.0409 34.1705ZM65.4143 33.7932C64.7688 33.7932 64.1688 33.6467 63.6144 33.3536C63.06 33.0606 62.6193 32.6595 62.2986 32.1522C61.9759 31.6449 61.8145 31.0827 61.8145 30.4637C61.8145 29.8135 61.9759 29.2476 62.2986 28.7641C62.6214 28.2806 63.0558 27.896 63.602 27.6103C64.1482 27.3246 64.7523 27.1818 65.4163 27.1818C66.008 27.1818 66.5542 27.2807 67.0548 27.4785C67.5555 27.6763 67.9775 27.9418 68.3168 28.2751C68.6561 28.6085 68.8982 28.9967 69.043 29.4399V31.438C68.9002 31.9142 68.6623 32.3299 68.3313 32.687C68.0003 33.0441 67.5824 33.317 67.0817 33.5075C66.5811 33.698 66.0246 33.7932 65.4163 33.7932H65.4143Z" fill="#1B1B30"/>
<path d="M78.6901 36.0293C79.3894 36.0293 80.0287 35.9304 80.61 35.7326C81.1913 35.5348 81.7024 35.2601 82.1409 34.9122C82.5568 34.5825 82.8692 34.1997 83.0822 33.7694L83.256 35.6246H85.7552V25.6837H82.9871V30.2018C82.9871 30.8995 82.8485 31.5332 82.5712 32.1046C82.294 32.676 81.9134 33.1229 81.4293 33.4489C80.9452 33.7749 80.4093 33.936 79.8177 33.936C79.1556 33.9195 78.6715 33.7492 78.3674 33.4251C78.0633 33.1009 77.9019 32.6833 77.8833 32.176V25.6837H75.1152V33.0551C75.1504 33.9269 75.5042 34.6411 76.1765 35.196C76.8489 35.751 77.6847 36.0293 78.6881 36.0293H78.6901Z" fill="#1B1B30"/>
<path d="M97.1099 33.1742C96.8058 33.3811 96.4561 33.546 96.0631 33.6742C95.6679 33.8005 95.2397 33.8646 94.7742 33.8646C94.0584 33.8646 93.4212 33.7218 92.8667 33.4361C92.3123 33.1504 91.8778 32.7621 91.5634 32.2713C91.2489 31.7805 91.0938 31.2329 91.0938 30.6304C91.0938 30.0278 91.2448 29.4802 91.551 28.9894C91.8551 28.4986 92.2668 28.1103 92.7861 27.8246C93.3053 27.5389 93.8784 27.3961 94.5052 27.3961C95.0969 27.3961 95.6203 27.4876 96.0775 27.669C96.5348 27.8521 96.9154 28.0462 97.2195 28.2513L98.5891 26.6818C98.0698 26.3009 97.4512 25.9914 96.7354 25.7551C96.0196 25.517 95.1942 25.398 94.2632 25.398C93.2433 25.398 92.2751 25.6123 91.3627 26.0408C90.4483 26.4694 89.7139 27.0756 89.1594 27.8594C88.605 28.6433 88.3257 29.5681 88.3257 30.6304C88.3257 31.6926 88.5864 32.6357 89.1056 33.4123C89.6249 34.1888 90.3511 34.795 91.282 35.2309C92.213 35.6667 93.297 35.8847 94.5321 35.8847C95.2666 35.8847 95.9865 35.7784 96.694 35.5642C97.4016 35.3499 98.0057 35.0697 98.5084 34.7199L97.112 33.1742H97.1099Z" fill="#1B1B30"/>
<path d="M102.572 35.6246H105.338V27.6103H108.348V25.7075H105.338V21.2846H102.572V25.7075H100.583V27.6103H102.572V35.6246Z" fill="#1B1B30"/>
<path d="M18.9502 16.697C17.3614 16.697 15.7312 17.3819 14.5395 18.3471H14.4278L14.4237 18.3287C14.2623 17.6511 13.7079 17.12 12.99 16.8453C11.9701 16.4534 11.2273 15.4516 10.5322 14.3473V33.4635C10.5322 33.958 10.8715 34.3994 11.3887 34.5844C11.6266 34.6686 11.8873 34.7419 12.1687 34.7968C13.7389 35.1063 14.5478 35.9414 14.9243 36.7143V31.145L14.7195 29.0187H14.823C15.8781 29.9234 17.1607 30.4344 18.4599 30.4344C21.7783 30.4344 24.8836 27.8521 24.8836 23.3596C24.8836 19.314 22.6451 16.6933 18.9502 16.6933V16.697ZM17.4628 27.2532C16.6932 27.2532 15.7519 27.028 14.9264 26.3833V21.096C15.8512 20.2334 16.718 19.88 17.6572 19.88C19.5192 19.88 20.3881 21.0502 20.3881 23.3999C20.3881 26.1122 19.0806 27.2514 17.4628 27.2514V27.2532Z" fill="#1B1B30"/>
<g style="mix-blend-mode:screen">
<path d="M18.9502 16.697C17.3614 16.697 15.7312 17.3819 14.5395 18.3471H14.4278L14.4237 18.3287C14.2623 17.6511 13.7079 17.12 12.99 16.8453C11.9701 16.4534 11.2273 15.4516 10.5322 14.3473V33.4635C10.5322 33.958 10.8715 34.3994 11.3887 34.5844C11.6266 34.6686 11.8873 34.7419 12.1687 34.7968C13.7389 35.1063 14.5478 35.9414 14.9243 36.7143V31.145L14.7195 29.0187H14.823C15.8781 29.9234 17.1607 30.4344 18.4599 30.4344C21.7783 30.4344 24.8836 27.8521 24.8836 23.3596C24.8836 19.314 22.6451 16.6933 18.9502 16.6933V16.697ZM17.4628 27.2532C16.6932 27.2532 15.7519 27.028 14.9264 26.3833V21.096C15.8512 20.2334 16.718 19.88 17.6572 19.88C19.5192 19.88 20.3881 21.0502 20.3881 23.3999C20.3881 26.1122 19.0806 27.2514 17.4628 27.2514V27.2532Z" fill="#F7931E"/>
</g>
<path d="M17.2953 52.2538C16.0602 52.2538 14.883 51.7282 14.883 50.1074V38.3626C14.5872 37.511 13.7886 36.4634 11.9867 36.1081C8.78003 35.4763 8.46971 32.8317 7.44358 32.0387C6.89327 34.4708 6.16712 35.7821 9.22069 37.7948C10.975 38.9523 10.4909 40.6463 10.4909 42.5638V49.9499C10.4909 53.2739 12.4294 55.3928 16.1574 55.3928C17.9966 55.3928 19.0393 55.1291 20.5744 54.6841L19.6041 51.8253C18.7062 52.1256 17.9821 52.2538 17.2974 52.2538H17.2953Z" fill="#F15A24"/>
<path d="M46.7304 45.2725C46.3456 44.7743 45.8387 44.3384 45.2056 43.9667C44.5167 43.5619 43.6333 43.3605 42.5596 43.3605C41.4859 43.3605 40.5715 43.5784 39.7129 44.0143C38.8523 44.4502 38.1593 45.0728 37.6317 45.8805C37.1021 46.6881 36.8394 47.657 36.8394 48.7814C36.8394 49.9059 37.0897 50.8784 37.5924 51.6476C38.0931 52.4168 38.7737 53.0029 39.6343 53.4076C40.495 53.8123 41.4528 54.0138 42.5079 54.0138C43.1534 54.0138 43.7347 53.9259 44.254 53.7519C44.7733 53.5779 45.2263 53.3636 45.6111 53.1091C45.9959 52.8563 46.3042 52.6091 46.538 52.371C46.6083 52.2978 46.6704 52.2337 46.7262 52.1732V53.7501H49.4674V43.8092H46.9145L46.7324 45.2688L46.7304 45.2725ZM46.0249 50.9114C45.7022 51.252 45.3091 51.5176 44.8436 51.708C44.3781 51.8985 43.8506 51.9937 43.2589 51.9937C42.6134 51.9937 42.0135 51.8472 41.459 51.5542C40.9046 51.2612 40.4639 50.8601 40.1433 50.3528C39.8205 49.8455 39.6592 49.2833 39.6592 48.6642C39.6592 47.9976 39.8102 47.4244 40.1164 46.9409C40.4205 46.4574 40.8467 46.0728 41.3928 45.7871C41.939 45.5014 42.5348 45.3585 43.1803 45.3585C43.7533 45.3585 44.2767 45.4574 44.7526 45.6552C45.2263 45.853 45.638 46.1186 45.9877 46.4519C46.3373 46.7852 46.5835 47.1661 46.7262 47.5929V49.6624C46.5835 50.1532 46.3497 50.5707 46.027 50.9114H46.0249Z" fill="#1B1B30"/>
<path d="M59.8884 43.3843C58.8312 43.3843 57.9044 43.5986 57.1079 44.0271C56.3362 44.441 55.7735 44.9905 55.4135 45.6717L55.2149 43.8129H52.7427V53.7538H55.5108V49.2357C55.5108 48.4903 55.6494 47.8365 55.9266 47.2742C56.2038 46.712 56.5948 46.2724 57.0955 45.9538C57.5961 45.6369 58.1609 45.4776 58.7878 45.4776C59.487 45.4776 59.9918 45.6406 60.3063 45.9648C60.6187 46.2908 60.7842 46.723 60.8028 47.2614V53.7538H63.5709V46.3823C63.5522 45.4941 63.1985 44.7725 62.5096 44.2176C61.8206 43.6627 60.9476 43.3843 59.8904 43.3843H59.8884Z" fill="#1B1B30"/>
<path d="M70.4685 39.412H67.7004V43.8366H65.7144V45.7395H67.7004V53.7537H70.4685V45.7395H73.4766V43.8366H70.4685V39.412Z" fill="#1B1B30"/>
<path d="M84.5718 44.5381C83.5767 43.7524 82.3292 43.3605 80.8251 43.3605C79.6438 43.3605 78.5764 43.5986 77.6288 44.0747C76.6792 44.5509 75.9221 45.1919 75.3593 46.0014C74.7945 46.809 74.5132 47.7064 74.5132 48.688C74.5132 49.6697 74.7635 50.6348 75.2662 51.4352C75.7669 52.2355 76.4889 52.8655 77.4282 53.3252C78.3695 53.7849 79.4825 54.0156 80.7734 54.0156C81.4354 54.0156 82.112 53.9131 82.8009 53.7061C83.4898 53.501 84.1311 53.2299 84.7228 52.8985L83.4339 51.0909C83.0574 51.3289 82.6457 51.5231 82.1988 51.6732C81.752 51.8234 81.2948 51.8985 80.8293 51.8985C80.1486 51.8985 79.5342 51.7593 78.988 51.4828C78.5019 51.2355 78.1088 50.9022 77.8088 50.4792L86.5785 47.8071C86.2372 46.4116 85.571 45.3219 84.578 44.5381H84.5718ZM77.6681 46.8695C77.964 46.386 78.3612 46.005 78.8639 45.7285C79.3646 45.4519 79.948 45.3128 80.61 45.3128C81.4168 45.3128 82.052 45.4996 82.5174 45.8713C82.9415 46.2101 83.2601 46.6002 83.4774 47.0379L77.2585 49.0543C77.2378 48.8913 77.2275 48.7228 77.2275 48.547C77.2275 47.9134 77.3744 47.3548 77.6702 46.8713L77.6681 46.8695Z" fill="#1B1B30"/>
<path d="M92.6524 44.7157C92.1187 45.1278 91.7111 45.6186 91.4256 46.1919L91.2022 43.8129H88.7568V53.7538H91.4959V49.3309C91.4959 48.7119 91.6759 48.1258 92.0338 47.5709C92.3917 47.016 92.8883 46.5728 93.5255 46.2395C94.1606 45.9062 94.8992 45.7633 95.7412 45.8109L95.9025 43.3843C95.4908 43.3843 94.984 43.4997 94.384 43.7286C93.7841 43.9594 93.2069 44.2872 92.6503 44.7157H92.6524Z" fill="#1B1B30"/>
<path d="M107.905 44.2157C107.217 43.6608 106.343 43.3824 105.286 43.3824C104.229 43.3824 103.302 43.5967 102.506 44.0253C101.734 44.4392 101.171 44.9886 100.811 45.6699L100.613 43.811H98.1406V53.7519H100.909V49.2338C100.909 48.4884 101.047 47.8346 101.325 47.2724C101.602 46.7101 101.993 46.2706 102.493 45.9519C102.994 45.6351 103.559 45.4757 104.186 45.4757C104.885 45.4757 105.39 45.6387 105.704 45.9629C106.017 46.2889 106.182 46.7211 106.201 47.2595V53.7519H108.969V46.3805C108.95 45.4922 108.596 44.7707 107.908 44.2157H107.905Z" fill="#1B1B30"/>
<path d="M31.8251 57.1254L29.8287 13.4609C29.7025 10.5105 26.9634 8.15893 23.7092 8.15893H23.6926L22.8568 6.46488C22.6251 5.99604 22.0996 5.69202 21.5203 5.69202H18.1461C18.8598 5.08949 19.3046 4.24338 19.3046 3.30386C19.3046 1.47794 17.633 0 15.5725 0C13.512 0 11.8404 1.47794 11.8404 3.30386C11.8404 4.24338 12.2851 5.08949 12.9968 5.69202H9.42811C8.84884 5.69202 8.32544 5.99604 8.09373 6.46488L7.22689 8.21754C4.3802 8.60214 2.11898 10.7852 2.0052 13.4609L0.00671893 57.1254C-0.160855 61.0574 2.82652 64.3082 6.68279 64.3082H7.25793L8.09373 62.6159C8.32544 62.1453 8.84884 61.8413 9.42811 61.8413H21.5203C22.0996 61.8413 22.6251 62.1453 22.8568 62.6159L23.6926 64.3082H25.1511C29.0053 64.3082 31.9927 61.0574 31.8251 57.1254ZM15.5725 1.89551C16.4497 1.89551 17.1634 2.52551 17.1634 3.30386C17.1634 4.08221 16.4497 4.71222 15.5725 4.71222C14.6953 4.71222 13.9816 4.08038 13.9816 3.30386C13.9816 2.52734 14.6933 1.89551 15.5725 1.89551ZM16.1559 55.3929C12.4279 55.3929 10.4894 53.2739 10.4894 49.9499V42.5638C10.4894 40.6482 10.9735 38.9523 9.21916 37.7967C6.16559 35.7821 6.89381 34.4708 7.44205 32.0387C8.46818 32.8335 8.78058 35.4763 11.9852 36.1099C13.7871 36.4652 14.5877 37.5128 14.8815 38.3626V50.1092C14.8815 51.7282 16.0607 52.2538 17.2958 52.2538C17.9806 52.2538 18.7026 52.1275 19.6025 51.8253L20.5728 54.6841C19.0357 55.1291 17.9951 55.3929 16.1559 55.3929ZM18.4606 30.4362C17.1613 30.4362 15.8766 29.9234 14.8215 29.0205H14.7201L14.925 31.145V36.7143C14.5464 35.9414 13.7395 35.1063 12.1693 34.7968C11.8859 34.74 11.6273 34.6686 11.3894 34.5844C10.8701 34.3994 10.5308 33.958 10.5308 33.4635V14.3473C11.228 15.4516 11.9707 16.4534 12.9906 16.8453C13.7085 17.12 14.2629 17.6511 14.4243 18.3288L14.4284 18.3471H14.5381C15.7318 17.3819 17.36 16.697 18.9488 16.697C22.6437 16.697 24.8822 19.3159 24.8822 23.3615C24.8822 27.8539 21.7789 30.4362 18.4606 30.4362Z" fill="#1B1B30"/>
</svg>
