<svg width="41" height="43" viewBox="0 0 41 43" fill="none" xmlns="http://www.w3.org/2000/svg">
<ellipse cx="20.5" cy="21.5332" rx="20.5" ry="21" fill="#7EB2DD"/>
<path d="M28.2187 17.0033C27.6509 17.2354 27.033 17.4024 26.3966 17.4674C27.0573 17.0955 27.5521 16.508 27.7882 15.815C27.1681 16.1645 26.4889 16.4095 25.7806 16.5393C25.4845 16.2394 25.1265 16.0006 24.7287 15.8376C24.331 15.6746 23.902 15.5909 23.4687 15.5918C21.7152 15.5918 20.3051 16.9383 20.3051 18.5906C20.3051 18.8227 20.3348 19.0547 20.383 19.2779C17.7575 19.1479 15.4159 17.9596 13.8592 16.1402C13.5755 16.5992 13.4269 17.1218 13.4287 17.6537C13.4287 18.6943 13.9872 19.6119 14.8389 20.1516C14.337 20.1328 13.8468 20.0022 13.4083 19.7701V19.807C13.4083 21.2643 14.4956 22.4719 15.9447 22.7496C15.6726 22.8166 15.3927 22.8508 15.1116 22.8516C14.9057 22.8516 14.7108 22.8322 14.5142 22.8059C14.9149 23.9941 16.082 24.8572 17.4718 24.8854C16.3845 25.6922 15.0226 26.1668 13.5438 26.1668C13.2784 26.1668 13.0335 26.158 12.7793 26.1299C14.182 26.9824 15.8464 27.4746 17.6388 27.4746C23.4575 27.4746 26.6415 22.9078 26.6415 18.944C26.6415 18.8139 26.6415 18.6838 26.6322 18.5537C27.2482 18.1266 27.7882 17.5975 28.2187 17.0033Z" fill="white"/>
</svg>
