<svg width="1869" height="525" viewBox="0 0 1869 525" fill="none" xmlns="http://www.w3.org/2000/svg">
<path d="M525 262.5C525 228.028 518.21 193.894 505.018 162.046C491.827 130.198 472.491 101.26 448.116 76.8845C423.74 52.5091 394.802 33.1735 362.954 19.9816C331.106 6.78976 296.972 -1.50682e-06 262.5 0C228.028 1.50682e-06 193.894 6.78977 162.046 19.9816C130.198 33.1735 101.26 52.5091 76.8845 76.8845C52.5091 101.26 33.1735 130.198 19.9816 162.046C6.78976 193.894 -3.01364e-06 228.028 0 262.5H76.9793C76.9793 238.137 81.778 214.013 91.1013 191.504C100.425 168.996 114.09 148.544 131.317 131.317C148.544 114.09 168.996 100.425 191.504 91.1013C214.013 81.778 238.137 76.9793 262.5 76.9793C286.863 76.9793 310.987 81.778 333.496 91.1013C356.004 100.425 376.456 114.09 393.683 131.317C410.91 148.544 424.575 168.996 433.899 191.504C443.222 214.013 448.021 238.137 448.021 262.5H525Z" fill="#7EB2DD"/>
<path d="M1421 262.5C1421 228.028 1414.21 193.894 1401.02 162.046C1387.83 130.198 1368.49 101.26 1344.12 76.8845C1319.74 52.5091 1290.8 33.1735 1258.95 19.9816C1227.11 6.78976 1192.97 -1.50682e-06 1158.5 0C1124.03 1.50682e-06 1089.89 6.78977 1058.05 19.9816C1026.2 33.1735 997.26 52.5091 972.884 76.8845C948.509 101.26 929.173 130.198 915.982 162.046C902.79 193.894 896 228.028 896 262.5H972.979C972.979 238.137 977.778 214.013 987.101 191.504C996.425 168.996 1010.09 148.544 1027.32 131.317C1044.54 114.09 1065 100.425 1087.5 91.1013C1110.01 81.778 1134.14 76.9793 1158.5 76.9793C1182.86 76.9793 1206.99 81.778 1229.5 91.1013C1252 100.425 1272.46 114.09 1289.68 131.317C1306.91 148.544 1320.58 168.996 1329.9 191.504C1339.22 214.013 1344.02 238.137 1344.02 262.5H1421Z" fill="#7EB2DD"/>
<path d="M973 262.5C973 296.972 966.21 331.106 953.018 362.954C939.827 394.802 920.491 423.74 896.116 448.116C871.74 472.491 842.802 491.827 810.954 505.018C779.106 518.21 744.972 525 710.5 525C676.028 525 641.894 518.21 610.046 505.018C578.198 491.827 549.26 472.491 524.884 448.116C500.509 423.74 481.173 394.802 467.982 362.954C454.79 331.106 448 296.972 448 262.5H524.979C524.979 286.863 529.778 310.987 539.101 333.496C548.425 356.004 562.09 376.456 579.317 393.683C596.544 410.91 616.996 424.575 639.504 433.899C662.013 443.222 686.137 448.021 710.5 448.021C734.863 448.021 758.987 443.222 781.496 433.899C804.004 424.575 824.456 410.91 841.683 393.683C858.91 376.456 872.575 356.004 881.899 333.496C891.222 310.987 896.021 286.863 896.021 262.5H973Z" fill="#7EB2DD"/>
<path d="M1869 262.5C1869 296.972 1862.21 331.106 1849.02 362.954C1835.83 394.802 1816.49 423.74 1792.12 448.116C1767.74 472.491 1738.8 491.827 1706.95 505.018C1675.11 518.21 1640.97 525 1606.5 525C1572.03 525 1537.89 518.21 1506.05 505.018C1474.2 491.827 1445.26 472.491 1420.88 448.116C1396.51 423.74 1377.17 394.802 1363.98 362.954C1350.79 331.106 1344 296.972 1344 262.5H1420.98C1420.98 286.863 1425.78 310.987 1435.1 333.496C1444.42 356.004 1458.09 376.456 1475.32 393.683C1492.54 410.91 1513 424.575 1535.5 433.899C1558.01 443.222 1582.14 448.021 1606.5 448.021C1630.86 448.021 1654.99 443.222 1677.5 433.899C1700 424.575 1720.46 410.91 1737.68 393.683C1754.91 376.456 1768.58 356.004 1777.9 333.496C1787.22 310.987 1792.02 286.863 1792.02 262.5H1869Z" fill="#7EB2DD"/>
</svg>
