<svg width="42" height="43" viewBox="0 0 42 43" fill="none" xmlns="http://www.w3.org/2000/svg">
<circle cx="21" cy="21.5332" r="21" fill="#7EB2DD"/>
<path d="M27.7088 18.1598C27.6291 17.863 27.4728 17.5923 27.2557 17.3748C27.0385 17.1574 26.768 17.0008 26.4713 16.9207C25.3791 16.627 21.001 16.627 21.001 16.627C21.001 16.627 16.6229 16.627 15.5307 16.9191C15.2338 16.999 14.9632 17.1555 14.746 17.373C14.5288 17.5904 14.3726 17.8613 14.2932 18.1582C14.001 19.252 14.001 21.5332 14.001 21.5332C14.001 21.5332 14.001 23.8145 14.2932 24.9066C14.4541 25.5098 14.9291 25.9848 15.5307 26.1457C16.6229 26.4395 21.001 26.4395 21.001 26.4395C21.001 26.4395 25.3791 26.4395 26.4713 26.1457C27.0744 25.9848 27.5479 25.5098 27.7088 24.9066C28.001 23.8145 28.001 21.5332 28.001 21.5332C28.001 21.5332 28.001 19.252 27.7088 18.1598ZM19.6104 23.627V19.4395L23.2354 21.5176L19.6104 23.627Z" fill="white"/>
</svg>
